<?xml version="1.0" standalone="no"?>
<!DOCTYPE svg PUBLIC "-//W3C//DTD SVG 1.1//EN" "http://www.w3.org/Graphics/SVG/1.1/DTD/svg11.dtd" >
<svg xmlns="http://www.w3.org/2000/svg" xmlns:xlink="http://www.w3.org/1999/xlink" version="1.1">
<metadata>
Created by FontForge 20161003 at Thu Feb 22 19:39:58 2018
 By www-data
Copyright (c) James Arboghast/Sentinel Type, 2014. All rights reserved. Published 2014 by S E N T I N E L  T Y P E. This font is authorized for use by Sentinel Type licensees of Blizzard Entertainment Inc, only &#38; may not be copied or distributed.
</metadata>
<defs>
<font id="BigNoodleTooOblique" horiz-adv-x="382" >
  <font-face 
    font-family="BigNoodleTooOblique"
    font-weight="400"
    font-style="oblique"
    font-stretch="normal"
    units-per-em="1000"
    panose-1="2 0 5 6 3 0 0 2 0 4"
    ascent="800"
    descent="-200"
    x-height="718"
    cap-height="718"
    bbox="-47 -208 1027.44 955"
    underline-thickness="40"
    underline-position="-85"
    unicode-range="U+0020-FB02"
  />
<missing-glyph horiz-adv-x="421" 
d="M320 58v529h-220v-529h220zM38 644h345v-644h-345v644z" />
    <glyph glyph-name=".notdef" horiz-adv-x="421" 
d="M320 58v529h-220v-529h220zM38 644h345v-644h-345v644z" />
    <glyph glyph-name=".null" horiz-adv-x="0" 
 />
    <glyph glyph-name="nonmarkingreturn" horiz-adv-x="290" 
 />
    <glyph glyph-name="space" unicode=" " horiz-adv-x="160" 
 />
    <glyph glyph-name="space" unicode="&#xa0;" horiz-adv-x="160" 
 />
    <glyph glyph-name="exclam" unicode="!" horiz-adv-x="178" 
d="M173 122l-31 -122h-102l31 122h102zM327 718l-147 -524h-81l122 524h106z" />
    <glyph glyph-name="quotedbl" unicode="&#x22;" horiz-adv-x="299" 
d="M381 480h-71l49 238h95zM237 480h-71l49 238h95z" />
    <glyph glyph-name="numbersign" unicode="#" horiz-adv-x="465" 
d="M307 479l-89 -235h101l89 235h-101zM191 176l-66 -176h-68l66 176h-78l26 68h79l89 235h-79l26 68h79l65 171h68l-65 -171h101l65 171h68l-65 -171h74l-26 -68h-74l-89 -235h74l-26 -68h-75l-66 -176h-68l66 176h-101z" />
    <glyph glyph-name="dollar" unicode="$" horiz-adv-x="380" 
d="M179 187l-18 -70q-8 -30 21 -30h41q30 0 36 30l34 132q5 20 0.5 26.5t-14.5 12.5l-101 76q-14 11 -20.5 20.5t-8 19t0.5 20.5t6 25l37 146q31 121 143 123l23 86h69l-23 -87q99 -7 69 -122l-18 -70h-96l20 75q9 31 -22 31h-28q-33 0 -39 -32l-36 -138q-5 -20 1 -26.5
t17 -13.5l102 -72q22 -16 25 -31.5t-6 -49.5l-38 -147q-30 -116 -139 -121l-23 -86h-69l23 86q-113 2 -79 132l14 55h96z" />
    <glyph glyph-name="percent" unicode="%" horiz-adv-x="696" 
d="M621 321q-19 0 -23 -16l-58 -225q-5 -18 14 -18h22q19 0 24 18l58 225q4 16 -15 16h-22zM303 655q-18 0 -22 -16l-58 -225q-5 -18 13 -18h22q20 0 25 18l58 225q4 16 -16 16h-22zM677 718l-413 -718h-61l413 718h61zM212 334q-86 0 -64 85l55 214q22 85 108 85h39
q87 0 65 -85l-55 -214q-22 -85 -109 -85h-39zM530 0q-86 0 -65 85l56 214q22 85 108 85h39q87 0 65 -85l-56 -214q-21 -85 -108 -85h-39z" />
    <glyph glyph-name="ampersand" unicode="&#x26;" horiz-adv-x="373" 
d="M252 331q-37 0 -47 -39l-48 -186q-6 -26 17 -26h51q26 0 32 26l58 225h-63zM202 371q-51 15 -33 82l41 160q27 105 132 105h58q105 0 78 -105l-21 -81h-90l21 79q6 27 -22 27h-30q-32 -6 -36 -27l-46 -175q-9 -34 22 -34h191l-19 -71h-43l-57 -219q-28 -112 -134 -112
h-68q-106 0 -78 112l45 173q20 74 89 86z" />
    <glyph glyph-name="quotesingle" unicode="'" horiz-adv-x="155" 
d="M234 470h-71l52 248h95z" />
    <glyph glyph-name="parenleft" unicode="(" horiz-adv-x="206" 
d="M206 0h-46q-111 0 -79 122l122 473q33 123 142 123h46l-19 -76h-30q-43 0 -56 -51l-120 -465q-14 -51 29 -51h30z" />
    <glyph glyph-name="parenright" unicode=")" horiz-adv-x="206" 
d="M19 75h30q41 0 55 51l120 465q13 51 -28 51h-30l19 76h46q111 0 78 -123l-122 -473q-32 -122 -141 -122h-46z" />
    <glyph glyph-name="asterisk" unicode="*" horiz-adv-x="356" 
d="M266 690l51 -72l10 6l35 103l86 -31l-74 -90l3 -7l107 24l-20 -88l-94 14l-6 -7l39 -79l-94 -47l-1 102l-9 3l-92 -76l-37 73l101 43v9l-83 42z" />
    <glyph glyph-name="plus" unicode="+" horiz-adv-x="381" 
d="M318 310l-29 -112h-88l29 112h-110l21 84h110l30 116h88l-30 -116h103l-21 -84h-103z" />
    <glyph glyph-name="comma" unicode="," horiz-adv-x="167" 
d="M0 -119l77 119h-47l32 124h107l-32 -124l-79 -119h-58z" />
    <glyph glyph-name="hyphen" unicode="-" horiz-adv-x="240" 
d="M91 313l20 80h220l-20 -80h-220z" />
    <glyph glyph-name="hyphen" unicode="&#xad;" horiz-adv-x="240" 
d="M91 313l20 80h220l-20 -80h-220z" />
    <glyph glyph-name="period" unicode="." horiz-adv-x="182" 
d="M173 122l-31 -122h-102l31 122h102z" />
    <glyph glyph-name="slash" unicode="/" horiz-adv-x="267" 
d="M475 768l-431 -818h-66l429 818h68z" />
    <glyph glyph-name="zero" unicode="0" horiz-adv-x="387" 
d="M337 631q-33 0 -42 -33l-123 -477q-9 -34 20 -34h46q30 0 39 35l123 476q9 33 -26 33h-37zM160 0q-116 0 -84 123l122 472q33 123 147 123h67q116 0 83 -123l-122 -472q-32 -123 -146 -123h-67z" />
    <glyph glyph-name="two" unicode="2" horiz-adv-x="365" 
d="M337 86l-22 -86h-258l21 83q8 32 24.5 57.5t32.5 45.5l181 219q8 11 13.5 18.5t10.5 27.5l40 153q6 27 -19 27h-33q-30 0 -36 -28l-23 -88h-96l20 80q33 123 147 123h50q116 0 83 -123l-38 -149q-5 -20 -17 -39.5t-28 -38.5l-190 -224q-13 -15 -16.5 -27.5t-8.5 -30.5
h162z" />
    <glyph glyph-name="three" unicode="3" horiz-adv-x="373" 
d="M353 369q72 -11 57 -71l-46 -176q-32 -122 -146 -122h-65q-116 0 -84 122l17 66h96l-18 -69q-8 -32 20 -32h46q29 0 37 32l42 160q10 45 -35 45h-36l21 81h28q43 0 52 39l40 154q9 32 -22 32h-35q-28 0 -37 -32l-21 -83h-96l20 80q33 123 147 123h56q116 0 83 -123
l-39 -153q-16 -63 -82 -73z" />
    <glyph glyph-name="four" unicode="4" horiz-adv-x="367" 
d="M375 597h-5l-197 -378h89zM387 138h-55l-35 -138h-94l35 138h-138q-13 0 -19 5t-4 22l5 49l276 504h124l-129 -499h55z" />
    <glyph glyph-name="five" unicode="5" horiz-adv-x="364" 
d="M165 115q-7 -28 21 -28h37q27 0 34 28l51 196q8 29 -27 29h-151l98 378h271l-23 -89h-181l-58 -227q11 11 28.5 18t37.5 7h25q105 0 81 -98l-53 -202q-33 -127 -147 -127h-54q-116 0 -84 122l15 56h96z" />
    <glyph glyph-name="six" unicode="6" horiz-adv-x="385" 
d="M171 119q-8 -32 21 -32h45q30 0 37 31l45 173q9 33 -25 33h-70zM373 524l20 75q8 32 -25 32h-35q-29 0 -37 -32l-56 -213q14 14 33 19.5t34 5.5h29q109 0 78 -123l-43 -167q-31 -121 -141 -121h-75q-111 0 -82 111l125 484q33 123 142 123h69q111 0 78 -123l-18 -71h-96z
" />
    <glyph glyph-name="seven" unicode="7" horiz-adv-x="303" 
d="M172 629l23 89h258l21 -32l-314 -686h-95l286 629h-179z" />
    <glyph glyph-name="eight" unicode="8" horiz-adv-x="383" 
d="M257 441q-9 -34 20 -34h38q29 2 39 35l41 157q7 31 -26 31h-30q-34 0 -41 -31zM226 87q43 0 56 52l39 149q9 36 -27 36h-44q-31 -1 -40 -36l-39 -149q-13 -52 30 -52h25zM210 366q-64 15 -49 77l39 152q33 123 147 123h59q116 0 83 -123l-39 -153q-17 -62 -83 -77
q67 -11 45 -96l-38 -147q-32 -122 -146 -122h-73q-116 0 -84 122l38 148q23 83 101 96z" />
    <glyph glyph-name="nine" unicode="9" horiz-adv-x="383" 
d="M398 599q8 32 -21 32h-45q-30 0 -37 -31l-56 -217q-9 -33 24 -33h70zM317 288q-14 -14 -32.5 -19.5t-33.5 -5.5h-29q-111 0 -79 123l55 211q31 121 141 121h75q110 0 82 -111l-126 -484q-32 -123 -141 -123h-69q-111 0 -79 123l15 57h96l-16 -61q-8 -32 25 -32h35
q29 0 37 32l44 169v0z" />
    <glyph glyph-name="colon" unicode=":" horiz-adv-x="182" 
d="M173 122l-31 -122h-102l31 122h102zM288 575l-32 -122h-102l32 122h102z" />
    <glyph glyph-name="semicolon" unicode=";" horiz-adv-x="187" 
d="M287 575l-32 -122h-102l32 122h102zM10 -119l77 119h-47l32 124h107l-32 -124l-79 -119h-58z" />
    <glyph glyph-name="less" unicode="&#x3c;" horiz-adv-x="298" 
d="M310 165l-30 -117l-189 230l17 63l308 232l-31 -119l-197 -145z" />
    <glyph glyph-name="equal" unicode="=" horiz-adv-x="370" 
d="M139 384l21 82h290l-21 -82h-290zM97 222l21 82h290l-21 -82h-290z" />
    <glyph glyph-name="greater" unicode="&#x3e;" horiz-adv-x="298" 
d="M147 454l30 117l189 -229l-17 -64l-308 -232l31 119l197 145z" />
    <glyph glyph-name="question" unicode="?" horiz-adv-x="376" 
d="M253 122l-31 -122h-102l31 122h102zM171 194l31 121q4 16 8 26.5t9.5 18t13.5 13t19 13.5l83 51q14 10 19.5 18.5t10.5 28.5l26 103q12 44 -30 44h-37q-40 0 -52 -44l-13 -52h-96l15 60q33 123 147 123h82q115 0 82 -123l-36 -142q-5 -17 -9.5 -27.5t-10.5 -18t-14 -13.5
t-19 -14l-80 -51q-14 -9 -19.5 -17.5t-10.5 -28.5l-23 -89h-96z" />
    <glyph glyph-name="at" unicode="@" horiz-adv-x="549" 
d="M407 345l47 182q4 16 -20 16h-30q-24 0 -28 -16l-47 -182h78zM504 0h-459l137 533q12 46 34.5 81t52 58.5t64.5 34.5t74 11h90q107 0 137 -46q33 -45 13 -117l-116 -449h-186l45 174h-78l-45 -174h-71l106 410q24 91 109 91h50q85 0 61 -91l-91 -351h49l100 385
q14 54 -9.5 80t-86.5 26h-90q-57 -1 -94 -32.5t-51 -86.5l-122 -474h393z" />
    <glyph glyph-name="A" unicode="A" 
d="M336 350l62 239q10 42 -31 42h-26q-43 0 -53 -42l-62 -239h110zM136 0h-96l153 595q33 123 147 123h72q116 0 83 -123l-153 -595h-96l68 263h-110z" />
    <glyph glyph-name="B" unicode="B" 
d="M242 393h43q28 0 40 10.5t19 36.5l38 146q13 52 -29 52h-47zM161 80h80q31 0 38 31l39 151q13 51 -43 51h-53zM369 355q38 -2 49 -20.5t0 -56.5l-44 -171q-7 -27 -16 -47t-24 -33.5t-38 -20t-58 -6.5h-193l185 718h154q128 0 95 -130l-40 -152q-9 -32 -25 -52.5
t-45 -28.5z" />
    <glyph glyph-name="C" unicode="C" horiz-adv-x="367" 
d="M385 188l-17 -66q-16 -61 -49 -91.5t-97 -30.5h-62q-116 0 -84 122l123 474q32 122 146 122h62q116 0 84 -122l-26 -101h-96l26 101q10 42 -32 42h-19q-39 0 -49 -42l-123 -474q-11 -42 27 -42h24q38 0 49 42l17 66h96z" />
    <glyph glyph-name="D" unicode="D" horiz-adv-x="387" 
d="M163 87h72q20 0 31 9t15 23l119 460q13 52 -29 52h-67zM230 718h167q68 0 94 -29.5t9 -98.5l-127 -486q-26 -104 -141 -104h-187z" />
    <glyph glyph-name="E" unicode="E" horiz-adv-x="287" 
d="M45 0l185 718h212l-20 -80h-116l-64 -245h116l-20 -80h-116l-61 -233h116l-20 -80h-212z" />
    <glyph glyph-name="F" unicode="F" horiz-adv-x="287" 
d="M358 393l-20 -80h-116l-81 -313h-96l185 718h212l-20 -80h-116l-64 -245h116z" />
    <glyph glyph-name="G" unicode="G" horiz-adv-x="390" 
d="M260 273l21 80h154l-90 -353h-185q-116 0 -84 122l123 474q32 122 146 122h62q116 0 84 -122l-26 -101h-96l24 94q6 24 0 33t-32 9h-19q-39 0 -49 -42l-119 -460q-6 -23 0 -32.5t28 -9.5h68l48 186h-58z" />
    <glyph glyph-name="H" unicode="H" horiz-adv-x="392" 
d="M251 0l81 313h-110l-81 -313h-96l185 718h96l-84 -325h110l84 325h96l-185 -718h-96z" />
    <glyph glyph-name="I" unicode="I" horiz-adv-x="186" 
d="M45 0l185 718h96l-185 -718h-96z" />
    <glyph glyph-name="J" unicode="J" horiz-adv-x="267" 
d="M40 80h71q15 0 27.5 9t17.5 29l155 600h96l-154 -597q-32 -121 -142 -121h-91z" />
    <glyph glyph-name="K" unicode="K" horiz-adv-x="354" 
d="M233 356l196 362h88l-196 -358l33 -360h-96l-27 350l-90 -350h-96l185 718h96z" />
    <glyph glyph-name="L" unicode="L" horiz-adv-x="277" 
d="M257 0h-212l185 718h96l-165 -638h116z" />
    <glyph glyph-name="M" unicode="M" horiz-adv-x="475" 
d="M316 296l198 422h106l-185 -718h-96l131 470l-160 -340h-74l16 340l-111 -470h-96l185 718h106z" />
    <glyph glyph-name="N" unicode="N" horiz-adv-x="381" 
d="M429 718h96l-185 -718h-96l37 143l-19 327l-121 -470h-96l185 718h96l14 -347z" />
    <glyph glyph-name="O" unicode="O" horiz-adv-x="402" 
d="M242 80q17 0 30.5 9t18.5 28l125 484q10 37 -28 37h-45q-37 0 -47 -37l-125 -484q-10 -37 28 -37h43zM161 0q-117 0 -85 122l122 473q33 123 147 123h82q116 0 83 -123l-122 -473q-32 -122 -147 -122h-80z" />
    <glyph glyph-name="P" unicode="P" horiz-adv-x="372" 
d="M232 353h16q45 0 71 17t36 55l47 181q11 32 -25 32h-71zM141 0h-96l185 718h181q115 0 84 -123l-47 -184q-20 -75 -75 -106.5t-146 -31.5h-16z" />
    <glyph glyph-name="Q" unicode="Q" horiz-adv-x="402" 
d="M416 601q10 37 -28 37h-45q-37 0 -47 -37l-125 -484q-10 -37 28 -37h82zM430 80l-20 -80h-249q-117 0 -85 122l122 473q33 123 147 123h82q116 0 83 -123l-133 -515h53z" />
    <glyph glyph-name="R" unicode="R" horiz-adv-x="383" 
d="M237 372h63q43 0 56 52l40 155q13 52 -29 52h-63zM262 0l12 290h-58l-75 -290h-96l185 718h188q111 0 78 -123l-45 -177q-25 -94 -88 -119l-10 -299h-91z" />
    <glyph glyph-name="S" unicode="S" horiz-adv-x="370" 
d="M164 110q-8 -30 21 -30h41q30 0 36 30l38 146q5 19 0 26t-14 13l-91 71q-27 22 -29.5 51t4.5 59l30 129q17 62 52 87.5t93 25.5h51q116 0 83 -123l-25 -100h-96l29 112q9 31 -22 31h-28q-32 0 -40 -32l-37 -145q-5 -20 1 -26.5t17 -13.5l90 -72q24 -17 27.5 -38.5
t-5.5 -59.5l-31 -140q-16 -61 -51.5 -86t-93.5 -25h-59q-116 0 -81 132l14 55h96z" />
    <glyph glyph-name="T" unicode="T" horiz-adv-x="300" 
d="M363 638l-165 -638h-96l165 638h-92l20 80h280l-20 -80h-92z" />
    <glyph glyph-name="U" unicode="U" horiz-adv-x="392" 
d="M532 718l-150 -582q-17 -69 -60.5 -102.5t-111.5 -33.5h-29q-136 0 -101 137l150 581h96l-151 -584q-13 -47 30 -47h24q43 0 56 47l151 584h96z" />
    <glyph glyph-name="V" unicode="V" horiz-adv-x="375" 
d="M541 718l-301 -718h-114l69 718h95l-64 -548l220 548h95z" />
    <glyph glyph-name="W" unicode="W" horiz-adv-x="565" 
d="M219 0h-104l79 718h95l-71 -538l207 538h75l-71 -538l207 538h95l-291 -718h-104l48 416z" />
    <glyph glyph-name="X" unicode="X" horiz-adv-x="330" 
d="M312 366l8 -366h-86l-4 251h-2l-132 -251h-86l195 366v352h87l-3 -235h2l117 235h87z" />
    <glyph glyph-name="Y" unicode="Y" horiz-adv-x="350" 
d="M285 406l145 312h95l-239 -474l-62 -244h-96l68 264l-1 454h95l-8 -312h3z" />
    <glyph glyph-name="Z" unicode="Z" horiz-adv-x="303" 
d="M298 80l-20 -80h-233l-3 69l302 568h-139l21 81h212l7 -68l-299 -570h152z" />
    <glyph glyph-name="bracketleft" unicode="[" horiz-adv-x="225" 
d="M50 0l185 718h155l-18 -71h-72l-149 -576h72l-18 -71h-155z" />
    <glyph glyph-name="backslash" unicode="\" horiz-adv-x="267" 
d="M256 768l8 -818h-67l-9 818h68z" />
    <glyph glyph-name="bracketright" unicode="]" horiz-adv-x="225" 
d="M20 0l18 71h72l149 576h-72l18 71h155l-185 -718h-155z" />
    <glyph glyph-name="underscore" unicode="_" horiz-adv-x="275" 
d="M-28 -71l18 71h295l-19 -71h-294z" />
    <glyph glyph-name="grave" unicode="`" horiz-adv-x="194" 
d="M238 552l-33 128h88l13 -128h-68z" />
    <glyph glyph-name="braceleft" unicode="{" horiz-adv-x="253" 
d="M206 420q58 -19 41 -86l-55 -214q-14 -51 29 -51h29l-17 -69h-45q-112 0 -80 123l53 202q13 52 -44 52l21 81q57 0 70 52l48 185q33 123 143 123h45l-18 -69h-29q-43 0 -56 -51l-52 -201q-17 -64 -83 -77z" />
    <glyph glyph-name="bar" unicode="|" horiz-adv-x="208" 
d="M44 -100l237 918h68l-237 -918h-68z" />
    <glyph glyph-name="braceright" unicode="}" horiz-adv-x="253" 
d="M266 430q-60 13 -43 77l49 191q13 51 -30 51h-29l18 69h45q112 0 79 -123l-45 -175q-13 -52 44 -52l-21 -81q-58 0 -71 -52l-55 -212q-32 -123 -142 -123h-45l17 69h29q43 0 57 51l58 224q17 67 85 86z" />
    <glyph glyph-name="quotesinglbase" unicode="&#x201a;" horiz-adv-x="161" 
d="M8 -20l35 135h67q40 0 30 -40l-25 -95l-81 -129h-57l78 129h-47z" />
    <glyph glyph-name="florin" unicode="&#x192;" horiz-adv-x="337" 
d="M165 417l30 78h40l45 121q12 28 23 47.5t25.5 31.5t34 17.5t47.5 5.5h89l-31 -84h-61q-29 0 -41 -31l-41 -108h90l-30 -78h-90l-120 -315q-12 -29 -23 -48.5t-25.5 -31.5t-33.5 -17t-46 -5h-57l31 84h31q25 0 39 32l114 301h-40z" />
    <glyph glyph-name="quotedblbase" unicode="&#x201e;" horiz-adv-x="319" 
d="M177 -20l35 135h67q40 0 30 -40l-25 -95l-81 -129h-58l79 129h-47zM18 -20l35 135h67q40 0 30 -40l-25 -95l-81 -129h-57l78 129h-47z" />
    <glyph glyph-name="dagger" unicode="&#x2020;" horiz-adv-x="358" 
d="M348 472l-122 -472h-95l122 472h-111l24 93h111l39 153h95l-39 -153h112l-24 -93h-112z" />
    <glyph glyph-name="daggerdbl" unicode="&#x2021;" horiz-adv-x="358" 
d="M196 255l57 217h-111l24 93h111l39 153h95l-39 -153h112l-24 -93h-112l-57 -217h112l-24 -93h-112l-41 -162h-95l41 162h-111l24 93h111z" />
    <glyph glyph-name="circumflex" unicode="&#x2c6;" horiz-adv-x="320" 
d="M318 620l-57 -58h-74l115 112h60l57 -112h-74z" />
    <glyph glyph-name="perthousand" unicode="&#x2030;" horiz-adv-x="986" 
d="M915 321q-22 0 -28 -23l-56 -213q-5 -23 17 -23h15q23 0 28 23l56 213q6 23 -17 23h-15zM621 321q-19 0 -23 -16l-58 -225q-5 -18 14 -18h22q19 0 24 18l58 225q4 16 -15 16h-22zM303 655q-18 0 -22 -16l-58 -225q-5 -18 13 -18h22q20 0 25 18l58 225q4 16 -16 16h-22z
M616 718h61l-413 -718h-61zM212 334q-86 0 -64 85l55 214q22 85 108 85h39q87 0 65 -85l-55 -214q-22 -85 -109 -85h-39zM530 0q-86 0 -65 85l56 214q22 85 108 85h39q87 0 65 -85l-56 -214q-21 -85 -108 -85h-39zM820 0q-86 0 -65 85l56 214q22 85 108 85h39q87 0 65 -85
l-56 -214q-21 -85 -108 -85h-39z" />
    <glyph glyph-name="guilsinglleft" unicode="&#x2039;" horiz-adv-x="219" 
d="M195 348l40 -168h-83l-42 168l129 168h83z" />
    <glyph glyph-name="OE" unicode="&#x152;" horiz-adv-x="535" 
d="M262 87q39 0 49 43l119 458q10 43 -32 43h-57q-43 0 -53 -42l-119 -460q-11 -42 32 -42h61zM537 87l-22 -87h-360q-116 0 -84 123l122 472q33 123 147 123h360l-22 -88h-142l-57 -217h126l-22 -87h-126l-62 -239h142z" />
    <glyph glyph-name="quoteleft" unicode="&#x2018;" horiz-adv-x="161" 
d="M322 719l-80 -129h47l-35 -135h-67q-39 0 -29 40l24 95l82 129h58z" />
    <glyph glyph-name="quoteright" unicode="&#x2019;" horiz-adv-x="151" 
d="M132 455l80 129h-47l35 135h67q39 0 29 -40l-24 -95l-82 -129h-58z" />
    <glyph glyph-name="quotedblleft" unicode="&#x201c;" horiz-adv-x="319" 
d="M322 719l-80 -129h47l-35 -135h-67q-39 0 -29 40l24 95l82 129h58zM480 719l-80 -129h47l-35 -135h-67q-39 0 -29 40l24 95l82 129h58z" />
    <glyph glyph-name="quotedblright" unicode="&#x201d;" horiz-adv-x="319" 
d="M301 455l80 129h-47l35 135h67q39 0 29 -40l-24 -95l-82 -129h-58zM142 455l80 129h-47l35 135h67q39 0 29 -40l-24 -95l-82 -129h-58z" />
    <glyph glyph-name="bullet" unicode="&#x2022;" horiz-adv-x="192" 
d="M254 473l-47 -182h-132l47 182h132z" />
    <glyph glyph-name="endash" unicode="&#x2013;" horiz-adv-x="295" 
d="M83 322l18 71h295l-18 -71h-295z" />
    <glyph glyph-name="emdash" unicode="&#x2014;" horiz-adv-x="470" 
d="M83 322l18 71h470l-18 -71h-470z" />
    <glyph glyph-name="tilde" unicode="&#x2dc;" horiz-adv-x="294" 
d="M424 657q-13 -45 -41.5 -67t-59.5 -23q-11 0 -19 3t-14.5 7t-13 7t-13.5 3q-20 0 -30 -25h-49q11 43 37.5 64t55.5 23q10 0 17.5 -3t14.5 -7t14 -7t16 -3q11 2 19.5 8.5t13.5 19.5h52z" />
    <glyph glyph-name="trademark" unicode="&#x2122;" horiz-adv-x="593" 
d="M331 656l-83 -322h-76l83 322h-56l16 62h189l-16 -62h-57zM537 718h-85l-99 -384h76l57 240l3 -178h46l95 178l-67 -240h76l99 384h-85l-116 -225v225z" />
    <glyph glyph-name="guilsinglright" unicode="&#x203a;" horiz-adv-x="219" 
d="M204 348l-41 168h83l43 -168l-130 -168h-83z" />
    <glyph glyph-name="exclamdown" unicode="&#xa1;" horiz-adv-x="195" 
d="M200 596l31 122h102l-31 -122h-102zM46 0l147 524h81l-122 -524h-106z" />
    <glyph glyph-name="cent" unicode="&#xa2;" horiz-adv-x="357" 
d="M353 511l9 37q10 39 -31 39h-9q-41 0 -51 -39l-76 -295q-11 -39 31 -39h9q40 0 51 39l9 34h86l-11 -42q-27 -102 -122 -102h-3l-16 -60h-70l16 60h-2q-97 0 -70 102l80 311q27 102 122 102h3l15 60h70l-15 -60h3q96 0 69 -102l-11 -45h-86z" />
    <glyph glyph-name="sterling" unicode="&#xa3;" horiz-adv-x="430" 
d="M426 180l-46 -180h-350l22 87h36l62 241h-36l20 77h36l49 190q33 123 147 123h78q117 0 84 -123l-13 -53h-96l12 47q10 42 -33 42h-31q-43 0 -53 -42l-48 -184h120l-30 -77h-110l-62 -241h122l24 93h96z" />
    <glyph glyph-name="currency" unicode="&#xa4;" horiz-adv-x="367" 
d="M281 298h-63l-46 -176q-11 -42 27 -42h24q38 0 49 42l17 66h96l-17 -66q-32 -122 -146 -122h-62q-116 0 -84 122l46 176h-35l13 50h35l10 40h-35l13 50h35l41 158q32 122 146 122h62q116 0 84 -122l-26 -101h-96l26 101q10 42 -32 42h-19q-39 0 -49 -42l-41 -158h113
l-31 -50h-95l-10 -40h81z" />
    <glyph glyph-name="yen" unicode="&#xa5;" horiz-adv-x="390" 
d="M312 264h101l-13 -50h-101l-55 -214h-96l55 214h-103l13 50h103l-1 40h-92l13 50h79v364h95l-11 -322h3l148 322h95l-187 -364h78l-13 -50h-91z" />
    <glyph glyph-name="section" unicode="&#xa7;" horiz-adv-x="342" 
d="M308 376q9 38 -29 38q-42 0 -51 -38l-7 -27q-11 -39 31 -39q38 0 49 39zM363 575l9 33q10 39 -28 39q-41 0 -51 -39l-20 -75q-3 -14 2 -18.5t16 -10.5l61 -26q14 -6 25.5 -11.5t19 -12.5t9.5 -18t-2 -29l-19 -72q-11 -42 -49 -60q16 -11 18.5 -22t-2.5 -29l-31 -122
q-27 -102 -122 -102h-63q-97 0 -70 102l14 54h87l-12 -47q-11 -39 30 -39q38 0 49 39l18 69q4 16 2 26t-20 18l-59 24q-26 8 -43.5 23t-9.5 47l18 69q12 47 47 64q-11 11 -14 22.5t2 28.5l30 116q27 102 122 102h64q97 0 70 -102l-11 -41h-87z" />
    <glyph glyph-name="dieresis" unicode="&#xa8;" horiz-adv-x="280" 
d="M281 662l-26 -100h-80l26 100h80zM421 662l-26 -100h-80l26 100h80z" />
    <glyph glyph-name="copyright" unicode="&#xa9;" horiz-adv-x="594" 
d="M454 451l15 58q6 24 -17 28h-26q-27 0 -34 -28l-77 -297q-7 -31 19 -31h26q28 0 35 31l12 45h80l-11 -43q-27 -102 -123 -102h-52q-96 0 -69 102l75 290q27 102 122 102h49q97 0 70 -102l-14 -53h-80zM417 42q79 0 102 87l119 459q22 88 -57 88h-222q-78 0 -100 -88
l-119 -459q-23 -87 55 -87h222zM187 0q-128 0 -92 137l117 452q33 129 160 129h220q127 0 94 -129l-117 -452q-36 -137 -162 -137h-220z" />
    <glyph glyph-name="ordfeminine" unicode="&#xaa;" horiz-adv-x="296" 
d="M316 529l27 101q6 26 -19 26h-14q-25 0 -31 -26l-27 -101h64zM202 334h-76l77 296q22 88 107 88h46q85 0 63 -88l-77 -296h-76l34 133h-64z" />
    <glyph glyph-name="guillemotleft" unicode="&#xab;" horiz-adv-x="369" 
d="M195 348l40 -168h-83l-42 168l129 168h83zM345 348l40 -168h-83l-42 168l129 168h83z" />
    <glyph glyph-name="logicalnot" unicode="&#xac;" horiz-adv-x="416" 
d="M119 300l22 84h328l-46 -176h-87l24 92h-241z" />
    <glyph glyph-name="registered" unicode="&#xae;" horiz-adv-x="458" 
d="M319 454h31q23 0 30 28l19 71q6 27 -16 27h-31zM390 258h-58l5 144h-31l-38 -144h-64l98 377h125q55 0 40 -63l-28 -107q-12 -45 -47 -59zM366 207q59 0 76 66l90 346q16 66 -42 66h-168q-61 0 -77 -66l-90 -346q-17 -66 43 -66h168zM189 175q-94 0 -69 97l90 348
q26 98 120 98h168q96 0 70 -98l-90 -348q-25 -97 -120 -97h-169z" />
    <glyph glyph-name="macron" unicode="&#xaf;" horiz-adv-x="300" 
d="M185 602l19 71h240l-19 -71h-240z" />
    <glyph glyph-name="macron" unicode="&#x2c9;" horiz-adv-x="300" 
d="M185 602l19 71h240l-19 -71h-240z" />
    <glyph glyph-name="degree" unicode="&#xb0;" horiz-adv-x="274" 
d="M235 617q-6 -24 7 -41.5t38 -17.5q24 0 46.5 17.5t28.5 41.5q7 26 -6.5 43.5t-37.5 17.5q-25 0 -47 -17.5t-29 -43.5zM189 617q6 22 19 41.5t31.5 34t40 23t43.5 8.5t39.5 -8.5t28.5 -23t14.5 -34t-2.5 -41.5q-6 -23 -19.5 -42.5t-32 -33.5t-40.5 -22.5t-44 -8.5
q-45 0 -67 31t-11 76z" />
    <glyph glyph-name="plusminus" unicode="&#xb1;" horiz-adv-x="401" 
d="M50 0l21 85h300l-21 -85h-300zM328 310l-29 -112h-88l29 112h-110l21 84h110l30 116h88l-30 -116h103l-21 -84h-103z" />
    <glyph glyph-name="acute" unicode="&#xb4;" horiz-adv-x="194" 
d="M240 552h-68l79 128h88z" />
    <glyph glyph-name="mu" unicode="&#xb5;" horiz-adv-x="312" 
d="M338 656h-5l-101 -183h49zM341 411l-20 -77h-76l20 77h-114l6 61l151 246h112l-63 -245h42l-16 -62h-42z" />
    <glyph glyph-name="mu" unicode="&#x3bc;" horiz-adv-x="312" 
d="M338 656h-5l-101 -183h49zM341 411l-20 -77h-76l20 77h-114l6 61l151 246h112l-63 -245h42l-16 -62h-42z" />
    <glyph glyph-name="paragraph" unicode="&#xb6;" horiz-adv-x="469" 
d="M322 -100l193 746h-169q-44 0 -57 -52l-31 -121q-13 -52 29 -52h39l44 168h78l-178 -689h-78l113 440h-68q-109 0 -76 128l32 127q33 123 142 123h269l-211 -818h-71z" />
    <glyph glyph-name="periodcentered" unicode="&#xb7;" horiz-adv-x="162" 
d="M246 402l-32 -122h-102l32 122h102z" />
    <glyph glyph-name="periodcentered" unicode="&#x2219;" horiz-adv-x="162" 
d="M246 402l-32 -122h-102l32 122h102z" />
    <glyph glyph-name="cedilla" unicode="&#xb8;" horiz-adv-x="222" 
d="M14 -137h46q25 0 31 24l4 14q7 28 -18 28h-40l25 97h52l-15 -57h9q56 0 40 -58l-9 -38q-15 -54 -71 -55h-66z" />
    <glyph glyph-name="ordmasculine" unicode="&#xba;" horiz-adv-x="292" 
d="M307 655q-22 0 -28 -23l-55 -213q-6 -23 16 -23h15q23 0 29 23l55 213q6 23 -17 23h-15zM212 334q-86 0 -64 85l55 214q22 85 108 85h39q87 0 65 -85l-55 -214q-22 -85 -109 -85h-39z" />
    <glyph glyph-name="guillemotright" unicode="&#xbb;" horiz-adv-x="369" 
d="M354 348l-41 168h83l43 -168l-130 -168h-83zM204 348l-41 168h83l43 -168l-130 -168h-83z" />
    <glyph glyph-name="questiondown" unicode="&#xbf;" horiz-adv-x="376" 
d="M308 596l31 122h102l-31 -122h-102zM390 524l-31 -121q-5 -17 -9 -27t-9.5 -17.5t-13 -13.5t-19.5 -13l-82 -51q-14 -10 -19.5 -18.5t-10.5 -28.5l-26 -100q-12 -46 20 -46h47q40 0 52 46l6 24h96l-9 -35q-32 -123 -142 -123h-90q-111 0 -79 123l38 146q4 16 9 27
t11 18.5t13.5 13t18.5 12.5l81 52q14 9 19.5 17.5t10.5 28.5l22 86h96z" />
    <glyph glyph-name="AE" unicode="&#xc6;" horiz-adv-x="509" 
d="M336 350l73 281h-68q-43 0 -53 -42l-62 -239h110zM136 0h-96l153 595q33 123 147 123h329l-22 -87h-142l-57 -218h126l-22 -87h-126l-62 -239h142l-22 -87h-238l68 263h-110z" />
    <glyph glyph-name="Oslash" unicode="&#xd8;" horiz-adv-x="402" 
d="M391 631h-50q-43 0 -53 -42l-117 -453zM193 87h57q38 0 49 42l119 462zM502 778l-29 -65q68 -19 42 -118l-122 -473q-32 -122 -147 -122h-91l-27 -60h-45l29 65q-65 21 -41 117l122 473q33 123 147 123h90l27 60h45z" />
    <glyph glyph-name="germandbls" unicode="&#xdf;" horiz-adv-x="422" 
d="M200 87h80q38 0 49 42l37 142q9 39 -24 39h-38q-9 0 -15 7.5t-3 19.5l22 85q2 9 10.5 18t21.5 9q11 0 20 5t14 23l28 110q12 44 -29 44h-30q-39 0 -51 -44l-151 -587h-96l154 598q31 120 141 120h76q117 0 85 -122l-29 -112q-13 -49 -32 -74.5t-55 -27.5l-1 -5
q104 -3 77 -109l-43 -166q-27 -102 -135 -102h-105z" />
    <glyph glyph-name="divide" unicode="&#xf7;" horiz-adv-x="440" 
d="M332 236l-32 -123h-102l32 123h102zM420 579l-31 -123h-102l31 123h102zM102 300l22 86h390l-22 -86h-390z" />
    <glyph glyph-name="dotlessi" unicode="&#x131;" horiz-adv-x="186" 
d="M45 0l185 718h96l-185 -718h-96z" />
    <glyph glyph-name="caron" unicode="&#x2c7;" horiz-adv-x="320" 
d="M319 616l57 58h74l-115 -112h-60l-57 112h74z" />
    <glyph glyph-name="breve" unicode="&#x2d8;" horiz-adv-x="272" 
d="M268 673q-2 -26 3.5 -39t24.5 -13q16 0 30.5 13t24.5 39h59q-12 -29 -27.5 -50t-33 -34.5t-35.5 -20t-33 -6.5q-18 0 -33 6.5t-25 20t-14 34.5t1 50h58z" />
    <glyph glyph-name="dotaccent" unicode="&#x2d9;" horiz-adv-x="160" 
d="M307 684l-32 -122h-102l32 122h102z" />
    <glyph glyph-name="ring" unicode="&#x2da;" horiz-adv-x="215" 
d="M302 613q4 15 -3.5 25t-21.5 10t-26.5 -10t-16.5 -25t3.5 -25t21.5 -10t26.5 10t16.5 25zM343 613q-8 -33 -35.5 -55t-59.5 -22q-30 0 -47 22t-9 55q9 34 37.5 56t58.5 22q32 0 48 -22t7 -56z" />
    <glyph glyph-name="ogonek" unicode="&#x2db;" horiz-adv-x="218" 
d="M182 24q-51 -33 -72 -55.5t-28 -46.5q-8 -33 26 -33q19 0 49 15l-18 -69q-30 -13 -63 -13q-36 0 -55 22.5t-10 59.5q3 13 9.5 27t18.5 28.5t32 30.5t51 34h60z" />
    <glyph glyph-name="hungarumlaut" unicode="&#x2dd;" horiz-adv-x="340" 
d="M244 562h-63l89 132h86zM370 562h-63l90 132h86z" />
    <glyph glyph-name="fraction" unicode="&#x2044;" horiz-adv-x="303" 
d="M55 -60h-70l447 838h72z" />
    <glyph glyph-name="fraction" unicode="&#x2215;" horiz-adv-x="303" 
d="M55 -60h-70l447 838h72z" />
    <glyph glyph-name="ellipsis" unicode="&#x2026;" horiz-adv-x="626" 
d="M395 122l-31 -122h-102l31 122h102zM617 122l-31 -122h-102l31 122h102zM173 122l-31 -122h-102l31 122h102z" />
    <glyph glyph-name="Ydieresis" unicode="&#x178;" horiz-adv-x="350" 
d="M508 865l-26 -100h-80l26 100h80zM368 865l-26 -100h-80l26 100h80zM285 406l145 312h95l-233 -454l-68 -264h-96l68 264l-1 454h95l-8 -312h3z" />
    <glyph glyph-name="Aacute" unicode="&#xc1;" 
d="M423 755h-68l79 128h88zM336 350l62 239q10 42 -31 42h-26q-43 0 -53 -42l-62 -239h110zM136 0h-96l153 595q33 123 147 123h72q116 0 83 -123l-153 -595h-96l68 263h-110z" />
    <glyph glyph-name="Agrave" unicode="&#xc0;" 
d="M364 763l-33 128h88l13 -128h-68zM336 350l62 239q10 42 -31 42h-26q-43 0 -53 -42l-62 -239h110zM136 0h-96l153 595q33 123 147 123h72q116 0 83 -123l-153 -595h-96l68 263h-110z" />
    <glyph glyph-name="Acircumflex" unicode="&#xc2;" 
d="M406 823l-58 -58h-74l115 112h60l57 -112h-74zM336 350l62 239q10 42 -31 42h-26q-43 0 -53 -42l-62 -239h110zM136 0h-96l153 595q33 123 147 123h72q116 0 83 -123l-153 -595h-96l68 263h-110z" />
    <glyph glyph-name="Adieresis" unicode="&#xc4;" 
d="M386 865l-26 -100h-80l26 100h80zM526 865l-26 -100h-80l26 100h80zM336 350l62 239q10 42 -31 42h-26q-43 0 -53 -42l-62 -239h110zM136 0h-96l153 595q33 123 147 123h72q116 0 83 -123l-153 -595h-96l68 263h-110z" />
    <glyph glyph-name="Atilde" unicode="&#xc3;" 
d="M526 860q-12 -45 -41 -67t-59 -23q-11 0 -19 3t-14.5 7t-13 7t-13.5 3q-19 0 -31 -25h-49q11 43 37.5 64t56.5 23q10 0 17.5 -3t14.5 -7t14 -7t16 -3q11 2 19.5 8.5t12.5 19.5h52zM336 350l62 239q10 42 -31 42h-26q-43 0 -53 -42l-62 -239h110zM136 0h-96l153 595
q33 123 147 123h72q116 0 83 -123l-153 -595h-96l68 263h-110z" />
    <glyph glyph-name="Aring" unicode="&#xc5;" 
d="M438 816q4 15 -3.5 25t-21.5 10t-26.5 -10t-16.5 -25t3.5 -25t21.5 -10t26.5 10t16.5 25zM479 816q-9 -33 -36 -55t-59 -22q-30 0 -47.5 22t-8.5 55q4 17 14 31t23 24.5t28.5 16.5t30.5 6q32 0 47.5 -22t7.5 -56zM336 350l62 239q10 42 -31 42h-26q-43 0 -53 -42
l-62 -239h110zM136 0h-96l153 595q33 123 147 123h72q116 0 83 -123l-153 -595h-96l68 263h-110z" />
    <glyph glyph-name="Igrave" unicode="&#xcc;" horiz-adv-x="186" 
d="M268 755l-33 128h88l13 -128h-68zM45 0l185 718h96l-185 -718h-96z" />
    <glyph glyph-name="Iacute" unicode="&#xcd;" horiz-adv-x="186" 
d="M319 755h-68l79 128h88zM45 0l185 718h96l-185 -718h-96z" />
    <glyph glyph-name="Icircumflex" unicode="&#xce;" horiz-adv-x="186" 
d="M306 823l-58 -58h-74l115 112h60l57 -112h-74zM45 0l185 718h96l-185 -718h-96z" />
    <glyph glyph-name="Idieresis" unicode="&#xcf;" horiz-adv-x="186" 
d="M426 865l-26 -100h-80l26 100h80zM286 865l-26 -100h-80l26 100h80zM45 0l185 718h96l-185 -718h-96z" />
    <glyph glyph-name="Ntilde" unicode="&#xd1;" horiz-adv-x="385" 
d="M532 860q-12 -45 -41 -67t-59 -23q-11 0 -19 3t-14.5 7t-13 7t-13.5 3q-19 0 -31 -25h-49q11 43 37.5 64t56.5 23q10 0 17.5 -3t14.5 -7t14 -7t16 -3q11 2 19.5 8.5t12.5 19.5h52zM429 718h96l-185 -718h-96l37 143l-19 327l-121 -470h-96l185 718h96l14 -347z" />
    <glyph glyph-name="Oacute" unicode="&#xd3;" horiz-adv-x="402" 
d="M427 755h-68l79 128h88zM248 80q33 0 43 37l125 484q10 37 -28 37h-45q-37 0 -47 -37l-125 -484q-10 -37 28 -37h49zM161 0q-117 0 -85 122l122 473q33 123 147 123h82q116 0 83 -123l-122 -473q-32 -122 -147 -122h-80z" />
    <glyph glyph-name="Ograve" unicode="&#xd2;" horiz-adv-x="402" 
d="M370 755l-33 128h88l13 -128h-68zM248 80q33 0 43 37l125 484q10 37 -28 37h-45q-37 0 -47 -37l-125 -484q-10 -37 28 -37h49zM161 0q-117 0 -85 122l122 473q33 123 147 123h82q116 0 83 -123l-122 -473q-32 -122 -147 -122h-80z" />
    <glyph glyph-name="Ocircumflex" unicode="&#xd4;" horiz-adv-x="402" 
d="M414 823l-58 -58h-74l115 112h60l57 -112h-74zM248 80q33 0 43 37l125 484q10 37 -28 37h-45q-37 0 -47 -37l-125 -484q-10 -37 28 -37h49zM161 0q-117 0 -85 122l122 473q33 123 147 123h82q116 0 83 -123l-122 -473q-32 -122 -147 -122h-80z" />
    <glyph glyph-name="Otilde" unicode="&#xd5;" horiz-adv-x="402" 
d="M525 854q-13 -45 -42 -67t-59 -23q-11 0 -19 3t-14.5 7t-13 7t-13.5 3q-20 0 -30 -25h-49q11 43 37.5 64t55.5 23q10 0 17.5 -3t14.5 -7t14 -7t16 -3q11 2 19.5 8.5t13.5 19.5h52zM248 80q33 0 43 37l125 484q10 37 -28 37h-45q-37 0 -47 -37l-125 -484q-10 -37 28 -37
h49zM161 0q-117 0 -85 122l122 473q33 123 147 123h82q116 0 83 -123l-122 -473q-32 -122 -147 -122h-80z" />
    <glyph glyph-name="Odieresis" unicode="&#xd6;" horiz-adv-x="402" 
d="M391 865l-26 -100h-80l26 100h80zM531 865l-26 -100h-80l26 100h80zM248 80q33 0 43 37l125 484q10 37 -28 37h-45q-37 0 -47 -37l-125 -484q-10 -37 28 -37h49zM161 0q-117 0 -85 122l122 473q33 123 147 123h82q116 0 83 -123l-122 -473q-32 -122 -147 -122h-80z" />
    <glyph glyph-name="Uacute" unicode="&#xda;" horiz-adv-x="392" 
d="M419 755h-68l79 128h88zM532 718l-150 -582q-36 -136 -172 -136h-29q-136 0 -101 137l150 581h96l-151 -584q-13 -47 30 -47h24q43 0 56 47l151 584h96z" />
    <glyph glyph-name="Ugrave" unicode="&#xd9;" horiz-adv-x="392" 
d="M361 755l-33 128h88l13 -128h-68zM532 718l-150 -582q-36 -136 -172 -136h-29q-136 0 -101 137l150 581h96l-151 -584q-13 -47 30 -47h24q43 0 56 47l151 584h96z" />
    <glyph glyph-name="Udieresis" unicode="&#xdc;" horiz-adv-x="392" 
d="M534 865l-26 -100h-80l26 100h80zM394 865l-26 -100h-80l26 100h80zM532 718l-150 -582q-36 -136 -172 -136h-29q-136 0 -101 137l150 581h96l-151 -584q-13 -47 30 -47h24q43 0 56 47l151 584h96z" />
    <glyph glyph-name="Ucircumflex" unicode="&#xdb;" horiz-adv-x="392" 
d="M414 823l-58 -58h-74l115 112h60l57 -112h-74zM532 718l-150 -582q-36 -136 -172 -136h-29q-136 0 -101 137l150 581h96l-151 -584q-13 -47 30 -47h24q43 0 56 47l151 584h96z" />
    <glyph glyph-name="one" unicode="1" horiz-adv-x="242" 
d="M185 548l-20 76q29 14 51 25.5t36 21.5t27 21.5t25 25.5h10l55 -34l-177 -684h-95l149 578z" />
    <glyph glyph-name="Eacute" unicode="&#xc9;" horiz-adv-x="287" 
d="M370 755h-68l79 128h88zM45 0l185 718h212l-20 -80h-116l-64 -245h116l-20 -80h-116l-61 -233h116l-20 -80h-212z" />
    <glyph glyph-name="Egrave" unicode="&#xc8;" horiz-adv-x="287" 
d="M318 755l-33 128h88l13 -128h-68zM45 0l185 718h212l-20 -80h-116l-64 -245h116l-20 -80h-116l-61 -233h116l-20 -80h-212z" />
    <glyph glyph-name="Edieresis" unicode="&#xcb;" horiz-adv-x="287" 
d="M484 865l-26 -100h-80l26 100h80zM344 865l-26 -100h-80l26 100h80zM45 0l185 718h212l-20 -80h-116l-64 -245h116l-20 -80h-116l-61 -233h116l-20 -80h-212z" />
    <glyph glyph-name="Ecircumflex" unicode="&#xca;" horiz-adv-x="287" 
d="M360 823l-58 -58h-74l115 112h60l57 -112h-74zM45 0l185 718h212l-20 -80h-116l-64 -245h116l-20 -80h-116l-61 -233h116l-20 -80h-212z" />
    <glyph glyph-name="Ccedilla" unicode="&#xc7;" horiz-adv-x="362" 
d="M114 -137h46q25 0 31 24l4 14q7 28 -18 28h-40l19 71q-112 2 -80 122l123 474q32 122 146 122h62q116 0 84 -122l-26 -101h-96l26 101q10 42 -32 42h-19q-39 0 -49 -42l-123 -474q-11 -42 27 -42h24q38 0 49 42l17 66h96l-17 -66q-32 -122 -146 -122h-14l-9 -31h9
q56 0 40 -58l-9 -38q-15 -54 -71 -55h-66z" />
    <glyph glyph-name="fi" unicode="&#xfb01;" horiz-adv-x="474" 
d="M333 0l163 631h-192l-57 -218h126l-22 -87h-126l-84 -326h-96l185 718h384l-185 -718h-96z" />
    <glyph glyph-name="fl" unicode="&#xfb02;" horiz-adv-x="571" 
d="M561 0h-228l163 631h-192l-57 -218h126l-22 -87h-126l-84 -326h-96l185 718h384l-163 -631h132z" />
    <glyph glyph-name="ae" unicode="&#xe6;" horiz-adv-x="504" 
d="M336 350l73 281h-68q-43 0 -53 -42l-62 -239h110zM136 0h-96l153 595q33 123 147 123h329l-22 -87h-142l-57 -218h126l-22 -87h-126l-62 -239h142l-22 -87h-238l68 263h-110z" />
    <glyph glyph-name="oe" unicode="&#x153;" horiz-adv-x="535" 
d="M262 87q39 0 49 43l119 458q10 43 -32 43h-57q-43 0 -53 -42l-119 -460q-11 -42 32 -42h61zM537 87l-22 -87h-360q-116 0 -84 123l122 472q33 123 147 123h360l-22 -88h-142l-57 -217h126l-22 -87h-126l-62 -239h142z" />
    <glyph glyph-name="a" unicode="a" 
d="M336 350l62 239q10 42 -31 42h-26q-43 0 -53 -42l-62 -239h110zM136 0h-96l153 595q33 123 147 123h72q116 0 83 -123l-153 -595h-96l68 263h-110z" />
    <glyph glyph-name="b" unicode="b" 
d="M242 393h43q28 0 40 10.5t19 36.5l38 146q13 52 -29 52h-47zM161 80h80q31 0 38 31l39 151q13 51 -43 51h-53zM369 355q38 -2 49 -20.5t0 -56.5l-44 -171q-7 -27 -16 -47t-24 -33.5t-38 -20t-58 -6.5h-193l185 718h154q128 0 95 -130l-40 -152q-9 -32 -25 -52.5
t-45 -28.5z" />
    <glyph glyph-name="c" unicode="c" horiz-adv-x="367" 
d="M385 188l-17 -66q-16 -61 -49 -91.5t-97 -30.5h-62q-116 0 -84 122l123 474q32 122 146 122h62q116 0 84 -122l-26 -101h-96l26 101q10 42 -32 42h-19q-39 0 -49 -42l-123 -474q-11 -42 27 -42h24q38 0 49 42l17 66h96z" />
    <glyph glyph-name="d" unicode="d" horiz-adv-x="387" 
d="M163 87h72q20 0 31 9t15 23l119 460q13 52 -29 52h-67zM230 718h167q68 0 94 -29.5t9 -98.5l-127 -486q-26 -104 -141 -104h-187z" />
    <glyph glyph-name="e" unicode="e" horiz-adv-x="287" 
d="M45 0l185 718h212l-20 -80h-116l-64 -245h116l-20 -80h-116l-61 -233h116l-20 -80h-212z" />
    <glyph glyph-name="f" unicode="f" horiz-adv-x="287" 
d="M358 393l-20 -80h-116l-81 -313h-96l185 718h212l-20 -80h-116l-64 -245h116z" />
    <glyph glyph-name="g" unicode="g" horiz-adv-x="390" 
d="M260 273l21 80h154l-90 -353h-185q-116 0 -84 122l123 474q32 122 146 122h62q116 0 84 -122l-26 -101h-96l24 94q6 24 0 33t-32 9h-19q-39 0 -49 -42l-119 -460q-6 -23 0 -32.5t28 -9.5h68l48 186h-58z" />
    <glyph glyph-name="h" unicode="h" horiz-adv-x="392" 
d="M251 0l81 313h-110l-81 -313h-96l185 718h96l-84 -325h110l84 325h96l-185 -718h-96z" />
    <glyph glyph-name="i" unicode="i" horiz-adv-x="186" 
d="M45 0l185 718h96l-185 -718h-96z" />
    <glyph glyph-name="j" unicode="j" horiz-adv-x="267" 
d="M40 80h71q15 0 27.5 9t17.5 29l155 600h96l-154 -597q-32 -121 -142 -121h-91z" />
    <glyph glyph-name="k" unicode="k" horiz-adv-x="354" 
d="M233 356l196 362h88l-196 -358l33 -360h-96l-27 350l-90 -350h-96l185 718h96z" />
    <glyph glyph-name="l" unicode="l" horiz-adv-x="277" 
d="M257 0h-212l185 718h96l-165 -638h116z" />
    <glyph glyph-name="m" unicode="m" horiz-adv-x="475" 
d="M316 296l198 422h106l-185 -718h-96l131 470l-160 -340h-74l16 340l-111 -470h-96l185 718h106z" />
    <glyph glyph-name="n" unicode="n" horiz-adv-x="381" 
d="M429 718h96l-185 -718h-96l37 143l-19 327l-121 -470h-96l185 718h96l14 -347z" />
    <glyph glyph-name="o" unicode="o" horiz-adv-x="402" 
d="M242 80q17 0 30.5 9t18.5 28l125 484q10 37 -28 37h-45q-37 0 -47 -37l-125 -484q-10 -37 28 -37h43zM161 0q-117 0 -85 122l122 473q33 123 147 123h82q116 0 83 -123l-122 -473q-32 -122 -147 -122h-80z" />
    <glyph glyph-name="p" unicode="p" horiz-adv-x="372" 
d="M232 353h16q45 0 71 17t36 55l47 181q11 32 -25 32h-71zM141 0h-96l185 718h181q115 0 84 -123l-47 -184q-20 -75 -75 -106.5t-146 -31.5h-16z" />
    <glyph glyph-name="q" unicode="q" horiz-adv-x="402" 
d="M416 601q10 37 -28 37h-45q-37 0 -47 -37l-125 -484q-10 -37 28 -37h82zM430 80l-20 -80h-249q-117 0 -85 122l122 473q33 123 147 123h82q116 0 83 -123l-133 -515h53z" />
    <glyph glyph-name="r" unicode="r" horiz-adv-x="373" 
d="M227 372h63q43 0 56 52l40 155q13 52 -29 52h-63zM252 0l12 290h-58l-75 -290h-96l185 718h188q111 0 78 -123l-45 -177q-25 -94 -88 -119l-10 -299h-91z" />
    <glyph glyph-name="s" unicode="s" horiz-adv-x="370" 
d="M164 110q-8 -30 21 -30h41q30 0 36 30l38 146q5 19 0 26t-14 13l-91 71q-27 22 -29.5 51t4.5 59l30 129q17 62 52 87.5t93 25.5h51q116 0 83 -123l-25 -100h-96l29 112q9 31 -22 31h-28q-32 0 -40 -32l-37 -145q-5 -20 1 -26.5t17 -13.5l90 -72q24 -17 27.5 -38.5
t-5.5 -59.5l-31 -140q-16 -61 -51.5 -86t-93.5 -25h-59q-116 0 -81 132l14 55h96z" />
    <glyph glyph-name="t" unicode="t" horiz-adv-x="300" 
d="M363 638l-165 -638h-96l165 638h-92l20 80h280l-20 -80h-92z" />
    <glyph glyph-name="u" unicode="u" horiz-adv-x="392" 
d="M532 718l-150 -582q-17 -69 -60.5 -102.5t-111.5 -33.5h-29q-136 0 -101 137l150 581h96l-151 -584q-13 -47 30 -47h24q43 0 56 47l151 584h96z" />
    <glyph glyph-name="v" unicode="v" horiz-adv-x="374" 
d="M540 718l-301 -718h-114l69 718h95l-64 -548l220 548h95z" />
    <glyph glyph-name="w" unicode="w" horiz-adv-x="565" 
d="M219 0h-104l79 718h95l-71 -538l207 538h75l-71 -538l207 538h95l-291 -718h-104l48 416z" />
    <glyph glyph-name="x" unicode="x" horiz-adv-x="330" 
d="M312 366l8 -366h-86l-4 251h-2l-132 -251h-86l195 366v352h87l-3 -235h2l117 235h87z" />
    <glyph glyph-name="y" unicode="y" horiz-adv-x="350" 
d="M285 406l145 312h95l-239 -474l-62 -244h-96l68 264l-1 454h95l-8 -312h3z" />
    <glyph glyph-name="z" unicode="z" horiz-adv-x="303" 
d="M298 80l-20 -80h-233l-3 69l302 568h-139l21 81h212l7 -68l-299 -570h152z" />
    <glyph glyph-name="agrave" unicode="&#xe0;" 
d="M364 762l-33 128h88l13 -128h-68zM336 350l62 239q10 42 -31 42h-26q-43 0 -53 -42l-62 -239h110zM136 0h-96l153 595q33 123 147 123h72q116 0 83 -123l-153 -595h-96l68 263h-110z" />
    <glyph glyph-name="aacute" unicode="&#xe1;" 
d="M424 762h-68l79 128h88zM336 350l62 239q10 42 -31 42h-26q-43 0 -53 -42l-62 -239h110zM136 0h-96l153 595q33 123 147 123h72q116 0 83 -123l-153 -595h-96l68 263h-110z" />
    <glyph glyph-name="acircumflex" unicode="&#xe2;" 
d="M407 830l-57 -58h-74l115 112h60l57 -112h-74zM336 350l62 239q1 5 1.5 9t0.5 8q0 5 -1 7q-1 1 -0.5 1.5t-0.5 1.5l-2 2q0 2 -3 4q-1 2 -7 6q-2 0 -3 1h-2q-1 1 -4 1q-3 1 -10 1h-26q-7 0 -10 -1q-2 0 -4 -0.5t-4 -0.5q-1 -1 -3 -1q-4 -1 -8 -4q-5 -2 -9 -6l-2 -2
q-7 -9 -10 -17l-3 -10l-62 -239h110zM136 0h-96l153 595l2 6l3 12q2 4 2 5q3 6 5 11l4 10q2 3 3 5.5t2 4.5q8 14 18 25t21 19q1 1 5 3q13 10 29 14q2 1 3 1t3 1q13 4 25 5q4 0 8 0.5t8 0.5h6h72q10 0 19 -1t17 -3q2 -1 4 -1q3 0 5 -1q2 -2 5.5 -2.5t5.5 -2.5t4 -2
q12 -8 18 -18q4 -5 6.5 -11.5t4.5 -13.5q1 -7 1 -14v-14q-2 -20 -7 -39l-153 -595h-96l68 263h-110z" />
    <glyph glyph-name="atilde" unicode="&#xe3;" 
d="M520 857q-12 -45 -41 -67t-59 -23q-11 0 -19 3t-14.5 7t-13 7t-13.5 3q-20 0 -30 -25h-49q11 43 37 64t56 23q10 0 17.5 -3t14.5 -7t14 -7t16 -3q11 2 19.5 8.5t12.5 19.5h52zM336 350l62 239q10 42 -31 42h-26q-43 0 -53 -42l-62 -239h110zM136 0h-96l153 595
q33 123 147 123h72q116 0 83 -123l-153 -595h-96l68 263h-110z" />
    <glyph glyph-name="adieresis" unicode="&#xe4;" 
d="M384 862l-26 -100h-80l26 100h80zM524 862l-26 -100h-80l26 100h80zM336 350l62 239q10 42 -31 42h-26q-43 0 -53 -42l-62 -239h110zM136 0h-96l153 595q33 123 147 123h72q116 0 83 -123l-153 -595h-96l68 263h-110z" />
    <glyph glyph-name="aring" unicode="&#xe5;" 
d="M438 813q4 15 -3.5 25t-21.5 10t-26.5 -10t-16.5 -25t3.5 -25t21.5 -10t26.5 10t16.5 25zM479 813q-8 -33 -35.5 -55t-59.5 -22q-30 0 -47 22t-9 55q9 34 37.5 56t58.5 22q32 0 48 -22t7 -56zM336 350l62 239q10 42 -31 42h-26q-43 0 -53 -42l-62 -239h110zM136 0h-96
l153 595q33 123 147 123h72q116 0 83 -123l-153 -595h-96l68 263h-110z" />
    <glyph glyph-name="ccedilla" unicode="&#xe7;" horiz-adv-x="367" 
d="M122 -137h46q25 0 31 24l4 14q7 28 -18 28h-40l19 71h-4q-116 0 -84 122l123 474q32 122 146 122h62q116 0 84 -122l-26 -101h-96l26 101q10 42 -32 42h-19q-39 0 -49 -42l-123 -474q-11 -42 27 -42h24q38 0 49 42l17 66h96l-17 -66q-32 -122 -146 -122h-6l-9 -31h9
q56 0 40 -58l-9 -38q-15 -54 -71 -55h-66z" />
    <glyph glyph-name="egrave" unicode="&#xe8;" horiz-adv-x="287" 
d="M329 762l-33 128h88l13 -128h-68zM45 0l185 718h212l-20 -80h-116l-64 -245h116l-20 -80h-116l-61 -233h116l-20 -80h-212z" />
    <glyph glyph-name="eacute" unicode="&#xe9;" horiz-adv-x="287" 
d="M372 762h-68l79 128h88zM45 0l185 718h212l-20 -80h-116l-64 -245h116l-20 -80h-116l-61 -233h116l-20 -80h-212z" />
    <glyph glyph-name="ecircumflex" unicode="&#xea;" horiz-adv-x="287" 
d="M366 820l-57 -58h-74l115 112h60l57 -112h-74zM45 0l185 718h212l-20 -80h-116l-64 -245h116l-20 -80h-116l-61 -233h116l-20 -80h-212z" />
    <glyph glyph-name="edieresis" unicode="&#xeb;" horiz-adv-x="287" 
d="M490 863l-26 -100h-80l26 100h80zM350 863l-26 -100h-80l26 100h80zM45 0l185 718h212l-20 -80h-116l-64 -245h116l-20 -80h-116l-61 -233h116l-20 -80h-212z" />
    <glyph glyph-name="igrave" unicode="&#xec;" horiz-adv-x="186" 
d="M271 752l-33 128h88l13 -128h-68zM45 0l185 718h96l-185 -718h-96z" />
    <glyph glyph-name="iacute" unicode="&#xed;" horiz-adv-x="186" 
d="M313 754h-68l79 128h88zM45 0l185 718h96l-185 -718h-96z" />
    <glyph glyph-name="icircumflex" unicode="&#xee;" horiz-adv-x="186" 
d="M301 823l-58 -58h-74l115 112h60l57 -112h-74zM45 0l185 718h96l-185 -718h-96z" />
    <glyph glyph-name="idieresis" unicode="&#xef;" horiz-adv-x="186" 
d="M423 862l-26 -100h-80l26 100h80zM283 862l-26 -100h-80l26 100h80zM45 0l185 718h96l-185 -718h-96z" />
    <glyph glyph-name="ntilde" unicode="&#xf1;" horiz-adv-x="385" 
d="M522 857q-12 -45 -41 -67t-59 -23q-11 0 -19 3t-14.5 7t-13 7t-13.5 3q-20 0 -30 -25h-49q11 43 37 64t56 23q10 0 17.5 -3t14.5 -7t14 -7t16 -3q11 2 19.5 8.5t12.5 19.5h52zM429 718h96l-185 -718h-96l37 143l-19 327l-121 -470h-96l185 718h96l14 -347z" />
    <glyph glyph-name="ograve" unicode="&#xf2;" horiz-adv-x="402" 
d="M395 752l-33 128h88l13 -128h-68zM248 80q33 0 43 37l125 484q10 37 -28 37h-45q-37 0 -47 -37l-125 -484q-10 -37 28 -37h49zM161 0q-117 0 -85 122l122 473q33 123 147 123h82q116 0 83 -123l-122 -473q-32 -122 -147 -122h-80z" />
    <glyph glyph-name="oacute" unicode="&#xf3;" horiz-adv-x="402" 
d="M425 752h-68l79 128h88zM248 80q33 0 43 37l125 484q10 37 -28 37h-45q-37 0 -47 -37l-125 -484q-10 -37 28 -37h49zM161 0q-117 0 -85 122l122 473q33 123 147 123h82q116 0 83 -123l-122 -473q-32 -122 -147 -122h-80z" />
    <glyph glyph-name="ocircumflex" unicode="&#xf4;" horiz-adv-x="402" 
d="M410 820l-57 -58h-74l115 112h60l57 -112h-74zM248 80q33 0 43 37l125 484q10 37 -28 37h-45q-37 0 -47 -37l-125 -484q-10 -37 28 -37h49zM161 0q-117 0 -85 122l122 473q33 123 147 123h82q116 0 83 -123l-122 -473q-32 -122 -147 -122h-80z" />
    <glyph glyph-name="otilde" unicode="&#xf5;" horiz-adv-x="402" 
d="M525 857q-12 -45 -41 -67t-59 -23q-11 0 -19 3t-14.5 7t-13 7t-13.5 3q-20 0 -30 -25h-49q11 43 37 64t56 23q10 0 17.5 -3t14.5 -7t14 -7t16 -3q11 2 19.5 8.5t12.5 19.5h52zM248 80q33 0 43 37l125 484q10 37 -28 37h-45q-37 0 -47 -37l-125 -484q-10 -37 28 -37h49z
M161 0q-117 0 -85 122l122 473q33 123 147 123h82q116 0 83 -123l-122 -473q-32 -122 -147 -122h-80z" />
    <glyph glyph-name="odieresis" unicode="&#xf6;" horiz-adv-x="402" 
d="M393 862l-26 -100h-80l26 100h80zM533 862l-26 -100h-80l26 100h80zM248 80q33 0 43 37l125 484q10 37 -28 37h-45q-37 0 -47 -37l-125 -484q-10 -37 28 -37h49zM161 0q-117 0 -85 122l122 473q33 123 147 123h82q116 0 83 -123l-122 -473q-32 -122 -147 -122h-80z" />
    <glyph glyph-name="oslash" unicode="&#xf8;" horiz-adv-x="402" 
d="M391 631h-50q-43 0 -53 -42l-117 -453zM193 87h57q38 0 49 42l119 462zM502 778l-29 -65q68 -19 42 -118l-122 -473q-32 -122 -147 -122h-91l-27 -60h-45l29 65q-65 21 -41 117l122 473q33 123 147 123h90l27 60h45z" />
    <glyph glyph-name="ugrave" unicode="&#xf9;" horiz-adv-x="392" 
d="M363 752l-33 128h88l13 -128h-68zM532 718l-150 -582q-36 -136 -172 -136h-29q-136 0 -101 137l150 581h96l-151 -584q-13 -47 30 -47h24q43 0 56 47l151 584h96z" />
    <glyph glyph-name="ucircumflex" unicode="&#xfb;" horiz-adv-x="392" 
d="M407 820l-57 -58h-74l115 112h60l57 -112h-74zM532 718l-150 -582q-36 -136 -172 -136h-29q-136 0 -101 137l150 581h96l-151 -584q-13 -47 30 -47h24q43 0 56 47l151 584h96z" />
    <glyph glyph-name="uacute" unicode="&#xfa;" horiz-adv-x="392" 
d="M418 742h-68l79 128h88zM532 718l-150 -582q-36 -136 -172 -136h-29q-136 0 -101 137l150 581h96l-151 -584q-13 -47 30 -47h24q43 0 56 47l151 584h96z" />
    <glyph glyph-name="udieresis" unicode="&#xfc;" horiz-adv-x="392" 
d="M533 862l-26 -100h-80l26 100h80zM393 862l-26 -100h-80l26 100h80zM532 718l-150 -582q-36 -136 -172 -136h-29q-136 0 -101 137l150 581h96l-151 -584q-13 -47 30 -47h24q43 0 56 47l151 584h96z" />
    <glyph glyph-name="ydieresis" unicode="&#xff;" horiz-adv-x="350" 
d="M508 862l-26 -100h-80l26 100h80zM368 862l-26 -100h-80l26 100h80zM285 406l145 312h95l-233 -454l-68 -264h-96l68 264l-1 454h95l-8 -312h3z" />
    <glyph glyph-name="asciitilde" unicode="~" horiz-adv-x="439" 
d="M584 718q-10 -38 -27.5 -61t-38.5 -36.5t-43.5 -18t-40.5 -4.5q-19 0 -34.5 7.5t-29.5 16.5t-26.5 16.5t-24.5 7.5q-17 0 -31 -10.5t-21 -36.5h-72q9 37 26.5 61t38 37t40.5 18t35 5q19 0 32.5 -7.5t25.5 -17t23.5 -17t26.5 -7.5q18 0 37.5 10.5t26.5 36.5h77z" />
    <glyph glyph-name="asciicircum" unicode="^" horiz-adv-x="412" 
d="M275 586h-94l180 132h60l112 -132h-94l-63 74z" />
    <glyph glyph-name="Euro" unicode="&#x20ac;" horiz-adv-x="367" 
d="M281 298h-63l-46 -176q-11 -42 27 -42h24q38 0 49 42l17 66h96l-17 -66q-32 -122 -146 -122h-62q-116 0 -84 122l46 176h-35l13 50h35l10 40h-35l13 50h35l41 158q32 122 146 122h62q116 0 84 -122l-26 -101h-96l26 101q10 42 -32 42h-19q-39 0 -49 -42l-41 -158h113
l-31 -50h-95l-10 -40h81z" />
    <glyph glyph-name="brokenbar" unicode="&#xa6;" horiz-adv-x="210" 
d="M34 -100l95 368h90l-95 -368h-90zM175 445l96 373h90l-96 -373h-90z" />
    <glyph glyph-name="twosuperior" unicode="&#xb2;" horiz-adv-x="281" 
d="M343 396l-16 -62h-190l26 101q4 14 9.5 23t25.5 25l92 63q14 10 18 16q2 3 4.5 11t5.5 22l11 42q6 19 -13 19h-17q-18 0 -24 -19l-11 -43h-71l12 44q20 80 92 80h58q71 0 51 -80l-20 -77q-4 -14 -9 -22t-21 -20l-88 -62q-11 -8 -17 -12.5t-9 -8.5t-4.5 -7.5t-2.5 -9.5
l-6 -23h114z" />
    <glyph glyph-name="threesuperior" unicode="&#xb3;" horiz-adv-x="288" 
d="M339 530q43 -10 35 -43l-22 -85q-18 -68 -87 -68h-70q-69 0 -51 68l9 36h76l-6 -23q-4 -19 17 -19h13q21 0 26 21l14 54q7 27 -13 27l-24 1l15 59l17 1q22 0 28 23l15 56q4 18 -17 18h-8q-21 0 -25 -18l-8 -28h-76l10 37q18 71 87 71h64q69 0 51 -71l-20 -77
q-9 -33 -50 -40z" />
    <glyph glyph-name="onesuperior" unicode="&#xb9;" horiz-adv-x="210" 
d="M251 610l-50 -17l-4 53q63 28 97 75h5l49 -30l-92 -357h-76z" />
    <glyph glyph-name="onequarter" unicode="&#xbc;" horiz-adv-x="634" 
d="M579 322h-5l-102 -183h49zM251 610l-50 -17l-4 53q63 28 97 75h5l49 -30l-92 -357h-76zM658 718l-460 -718h-65l458 718h67zM581 77l-19 -77h-76l19 77h-114l6 61l152 246h112l-64 -245h42l-16 -62h-42z" />
    <glyph glyph-name="onehalf" unicode="&#xbd;" horiz-adv-x="634" 
d="M251 610l-50 -17l-4 53q63 28 97 75h5l49 -30l-92 -357h-76zM658 718l-460 -718h-65l458 718h67zM620 62l-16 -62h-190l26 101q2 7 4 12.5t5.5 10.5t9 11t15.5 14l92 63q16 11 19 16q2 4 10 33l11 42q4 19 -13 19h-17q-20 0 -24 -19l-11 -43h-71l11 44q21 80 93 80h58
q71 0 50 -80l-20 -77q-4 -14 -8.5 -22t-21.5 -20l-88 -62q-11 -8 -17 -12.5t-9 -8.5t-4 -7.5t-3 -9.5l-5 -23h114z" />
    <glyph glyph-name="threequarters" unicode="&#xbe;" horiz-adv-x="634" 
d="M579 322h-5l-102 -183h49zM688 718l-460 -718h-65l458 718h67zM329 530q43 -10 35 -43l-22 -85q-18 -68 -87 -68h-70q-69 0 -51 68l9 36h76l-6 -23q-4 -19 17 -19h13q21 0 26 21l14 54q7 27 -13 27l-24 1l15 59l17 1q22 0 28 23l15 56q4 18 -17 18h-8q-21 0 -25 -18
l-8 -28h-76l10 37q18 71 87 71h64q69 0 51 -71l-20 -77q-9 -33 -50 -40zM581 77l-19 -77h-76l19 77h-114l6 61l152 246h112l-64 -245h42l-16 -62h-42z" />
    <glyph glyph-name="multiply" unicode="&#xd7;" horiz-adv-x="378" 
d="M333 349l76 -94l-78 -62l-67 101l-109 -93l-48 64l116 84l-76 95l80 62l66 -102l109 94l47 -64z" />
    <glyph glyph-name="Thorn" unicode="&#xde;" horiz-adv-x="377" 
d="M221 312h72q38 0 49 42l30 115q10 42 -32 42h-67zM294 598h93q115 0 82 -123l-33 -129q-31 -121 -147 -121h-90l-58 -225h-96l185 718h95z" />
    <glyph glyph-name="Lslash" unicode="&#x141;" horiz-adv-x="277" 
d="M326 450l-18 -68l-80 -44l-67 -257h116l-20 -81h-212l71 277l-43 -23l18 68l43 23l96 373h96l-80 -312z" />
    <glyph glyph-name="minus" unicode="&#x2212;" horiz-adv-x="400" 
d="M132 320l22 85h300l-22 -85h-300z" />
    <glyph glyph-name="Yacute" unicode="&#xdd;" horiz-adv-x="350" 
d="M399 755h-68l79 128h88zM285 406l145 312h95l-233 -454l-68 -264h-96l68 264l-1 454h95l-8 -312h3z" />
    <glyph glyph-name="Scaron" unicode="&#x160;" horiz-adv-x="370" 
d="M443 877h74l-115 -112h-60l-57 112h74l27 -58zM358 495l29 112q9 31 -22 31h-28q-32 0 -40 -32l-37 -145q-5 -20 1 -26.5t17 -13.5l102 -72q22 -16 25 -31.5t-6 -49.5l-38 -147q-31 -121 -147 -121h-59q-116 0 -81 132l14 55h96l-20 -77q-8 -30 21 -30h41q30 0 36 30
l38 146q5 20 0.5 26.5t-14.5 12.5l-101 76q-14 11 -20.5 20.5t-8 19t0.5 20.5t6 25l35 139q33 123 147 123h51q116 0 83 -123l-25 -100h-96z" />
    <glyph glyph-name="Eth" unicode="&#xd0;" horiz-adv-x="387" 
d="M222 313l-59 -226h72q38 0 46 32l119 460q13 52 -29 52h-67l-62 -238h63l-20 -80h-63zM126 313h-35l20 80h35l84 325h167q134 0 100 -138l-124 -476q-26 -104 -141 -104h-187z" />
    <glyph glyph-name="lslash" unicode="&#x142;" horiz-adv-x="277" 
d="M326 450l-18 -68l-80 -44l-67 -258h116l-20 -80h-212l71 277l-43 -23l18 68l43 23l96 373h96l-80 -312z" />
    <glyph glyph-name="Zcaron" unicode="&#x17d;" horiz-adv-x="293" 
d="M428 874h74l-115 -112h-60l-57 112h74l27 -58zM298 80l-20 -80h-247l11 69l302 568h-139l21 81h231l-12 -68l-299 -570h152z" />
    <glyph glyph-name="zcaron" unicode="&#x17e;" horiz-adv-x="293" 
d="M430 884h74l-115 -112h-60l-57 112h74l27 -58zM298 80l-20 -80h-247l11 69l302 568h-139l21 81h231l-12 -68l-299 -570h152z" />
    <glyph glyph-name="scaron" unicode="&#x161;" horiz-adv-x="370" 
d="M164 110q-8 -30 21 -30h41q30 0 36 30l38 146q5 19 0 26t-14 13l-91 71q-27 22 -29.5 51t4.5 59l30 129q17 62 52 87.5t93 25.5h51q116 0 83 -123l-25 -100h-96l29 112q9 31 -22 31h-28q-32 0 -40 -32l-37 -145q-5 -20 1 -26.5t17 -13.5l90 -72q24 -17 27.5 -38.5
t-5.5 -59.5l-31 -140q-16 -61 -51.5 -86t-93.5 -25h-59q-116 0 -81 132l14 55h96zM433 874h74l-115 -112h-60l-57 112h74l27 -58z" />
    <glyph glyph-name="eth" unicode="&#xf0;" horiz-adv-x="387" 
d="M163 87h72q38 0 46 32l119 460q13 52 -29 52h-67l-64 -246h69l-21 -80h-69zM45 0l78 305h-33l21 80h33l86 333h167q134 0 100 -138l-124 -476q-26 -104 -141 -104h-187z" />
    <glyph glyph-name="yacute" unicode="&#xfd;" horiz-adv-x="350" 
d="M394 752h-68l79 128h88zM285 406l145 312h95l-233 -454l-68 -264h-96l68 264l-1 454h95l-8 -312h3z" />
    <glyph glyph-name="thorn" unicode="&#xfe;" horiz-adv-x="377" 
d="M221 312h72q38 0 49 42l30 115q10 42 -32 42h-67zM294 598h93q115 0 82 -123l-33 -129q-31 -121 -147 -121h-90l-58 -225h-96l185 718h95z" />
    <glyph glyph-name="uni0400" unicode="&#x400;" horiz-adv-x="287" 
d="M325 752l-33 128h88l13 -128h-68zM45 0l185 718h212l-20 -80h-116l-64 -245h116l-20 -80h-116l-61 -233h116l-20 -80h-212z" />
    <glyph glyph-name="sacute" unicode="&#x15b;" horiz-adv-x="370" 
d="M164 110q-8 -30 21 -30h41q30 0 36 30l38 146q5 19 0 26t-14 13l-91 71q-27 22 -29.5 51t4.5 59l30 129q17 62 52 87.5t93 25.5h51q116 0 83 -123l-25 -100h-96l29 112q9 31 -22 31h-28q-32 0 -40 -32l-37 -145q-5 -20 1 -26.5t17 -13.5l90 -72q24 -17 27.5 -38.5
t-5.5 -59.5l-31 -140q-16 -61 -51.5 -86t-93.5 -25h-59q-116 0 -81 132l14 55h96zM422 752h-68l79 128h88z" />
    <glyph glyph-name="tcaron" unicode="&#x165;" horiz-adv-x="300" 
d="M358 806l57 58h74l-115 -112h-60l-57 112h74zM363 638l-165 -638h-96l165 638h-92l20 80h280l-20 -80h-92z" />
    <glyph glyph-name="zacute" unicode="&#x17a;" horiz-adv-x="303" 
d="M382 752h-68l79 128h88zM298 80l-20 -80h-247l11 69l302 568h-139l21 81h231l-12 -68l-299 -570h152z" />
    <glyph glyph-name="Sacute" unicode="&#x15a;" horiz-adv-x="370" 
d="M164 110q-8 -30 21 -30h41q30 0 36 30l38 146q5 19 0 26t-14 13l-91 71q-27 22 -29.5 51t4.5 59l30 129q17 62 52 87.5t93 25.5h51q116 0 83 -123l-25 -100h-96l29 112q9 31 -22 31h-28q-32 0 -40 -32l-37 -145q-5 -20 1 -26.5t17 -13.5l90 -72q24 -17 27.5 -38.5
t-5.5 -59.5l-31 -140q-16 -61 -51.5 -86t-93.5 -25h-59q-116 0 -81 132l14 55h96zM410 742h-68l79 128h88z" />
    <glyph glyph-name="Tcaron" unicode="&#x164;" horiz-adv-x="300" 
d="M358 806l57 58h74l-115 -112h-60l-57 112h74zM363 638l-165 -638h-96l165 638h-92l20 80h280l-20 -80h-92z" />
    <glyph glyph-name="Zacute" unicode="&#x179;" horiz-adv-x="303" 
d="M382 752h-68l79 128h88zM298 80l-20 -80h-247l11 69l302 568h-139l21 81h231l-12 -68l-299 -570h152z" />
    <glyph glyph-name="Aogonek" unicode="&#x104;" 
d="M336 350l62 239q10 42 -31 42h-26q-43 0 -53 -42l-62 -239h110zM246 0l68 263h-110l-68 -263h-96l153 595q33 123 147 123h72q116 0 83 -123l-153 -595q-51 -33 -72.5 -55.5t-27.5 -46.5q-9 -33 26 -33q19 0 48 15l-17 -69q-30 -13 -63 -13q-36 0 -55.5 22.5t-10.5 59.5
q4 13 10 27t18.5 28.5t32.5 30.5t51 34h-36z" />
    <glyph glyph-name="Scedilla" unicode="&#x15e;" horiz-adv-x="370" 
d="M111 -163h46q24 0 32 24l3 14q7 28 -18 28h-40l26 97h-5q-116 0 -81 132l14 55h96l-20 -77q-8 -30 21 -30h41q30 0 36 30l38 146q5 19 0 26t-14 13l-91 71q-27 22 -29.5 51t4.5 59l30 129q17 62 52 87.5t93 25.5h51q116 0 83 -123l-25 -100h-96l29 112q9 31 -22 31h-28
q-32 0 -40 -32l-37 -145q-5 -20 1 -26.5t17 -13.5l90 -72q24 -17 27.5 -38.5t-5.5 -59.5l-31 -140q-16 -61 -51.5 -86t-93.5 -25h-2l-15 -57h9q55 0 40 -58l-10 -38q-13 -53 -70 -55h-66z" />
    <glyph glyph-name="uni017B" unicode="&#x17b;" horiz-adv-x="303" 
d="M433 852l-26 -102h-92l26 102h92zM298 80l-20 -80h-247l11 69l302 568h-139l21 81h231l-12 -68l-299 -570h152z" />
    <glyph glyph-name="aogonek" unicode="&#x105;" 
d="M336 350l62 239q10 42 -31 42h-26q-43 0 -53 -42l-62 -239h110zM246 0l68 263h-110l-68 -263h-96l153 595q33 123 147 123h72q116 0 83 -123l-153 -595q-51 -33 -72.5 -55.5t-27.5 -46.5q-9 -33 26 -33q19 0 48 15l-17 -69q-30 -13 -63 -13q-36 0 -55.5 22.5t-10.5 59.5
q4 13 10 27t18.5 28.5t32.5 30.5t51 34h-36z" />
    <glyph glyph-name="scedilla" unicode="&#x15f;" horiz-adv-x="370" 
d="M111 -163h46q24 0 32 24l3 14q7 28 -18 28h-40l26 97h-5q-116 0 -81 132l14 55h96l-20 -77q-8 -30 21 -30h41q30 0 36 30l38 146q5 19 0 26t-14 13l-91 71q-27 22 -29.5 51t4.5 59l30 129q17 62 52 87.5t93 25.5h51q116 0 83 -123l-25 -100h-96l29 112q9 31 -22 31h-28
q-32 0 -40 -32l-37 -145q-5 -20 1 -26.5t17 -13.5l90 -72q24 -17 27.5 -38.5t-5.5 -59.5l-31 -140q-16 -61 -51.5 -86t-93.5 -25h-2l-15 -57h9q55 0 40 -58l-10 -38q-13 -53 -70 -55h-66z" />
    <glyph glyph-name="Lcaron" unicode="&#x13d;" horiz-adv-x="277" 
d="M305 808l57 58h74l-115 -112h-60l-57 112h74zM257 0h-212l185 718h96l-165 -638h116z" />
    <glyph glyph-name="lcaron" unicode="&#x13e;" horiz-adv-x="277" 
d="M305 808l57 58h74l-115 -112h-60l-57 112h74zM257 0h-212l185 718h96l-165 -638h116z" />
    <glyph glyph-name="uni017C" unicode="&#x17c;" horiz-adv-x="303" 
d="M433 852l-26 -102h-92l26 102h92zM298 80l-20 -80h-247l11 69l302 568h-139l21 81h231l-12 -68l-299 -570h152z" />
    <glyph glyph-name="Racute" unicode="&#x154;" horiz-adv-x="373" 
d="M380 742h-68l79 128h88zM227 372h63q43 0 56 52l40 155q13 52 -29 52h-63zM252 0l12 290h-58l-75 -290h-96l185 718h188q111 0 78 -123l-45 -177q-25 -94 -88 -119l-10 -299h-91z" />
    <glyph glyph-name="Abreve" unicode="&#x102;" 
d="M368 853q-2 -26 4 -39t25 -13q16 0 30 13t24 39h59q-12 -29 -27.5 -50t-33 -34.5t-35 -20t-32.5 -6.5q-18 0 -33 6.5t-25.5 20t-14.5 34.5t1 50h58zM336 350l62 239q10 42 -31 42h-26q-43 0 -53 -42l-62 -239h110zM136 0h-96l153 595q33 123 147 123h72q116 0 83 -123
l-153 -595h-96l68 263h-110z" />
    <glyph glyph-name="Lacute" unicode="&#x139;" horiz-adv-x="277" 
d="M321 752h-68l79 128h88zM257 0h-212l185 718h96l-165 -638h116z" />
    <glyph glyph-name="Cacute" unicode="&#x106;" horiz-adv-x="367" 
d="M419 742h-68l79 128h88zM385 188l-17 -66q-32 -122 -146 -122h-62q-116 0 -84 122l123 474q32 122 146 122h62q116 0 84 -122l-26 -101h-96l26 101q10 42 -32 42h-19q-39 0 -49 -42l-123 -474q-11 -42 27 -42h24q38 0 49 42l17 66h96z" />
    <glyph glyph-name="Ccaron" unicode="&#x10c;" horiz-adv-x="367" 
d="M398 796l57 58h74l-115 -112h-60l-57 112h74zM385 188l-17 -66q-32 -122 -146 -122h-62q-116 0 -84 122l123 474q32 122 146 122h62q116 0 84 -122l-26 -101h-96l26 101q10 42 -32 42h-19q-39 0 -49 -42l-123 -474q-11 -42 27 -42h24q38 0 49 42l17 66h96z" />
    <glyph glyph-name="Eogonek" unicode="&#x118;" horiz-adv-x="287" 
d="M45 0l185 718h212l-20 -80h-116l-64 -245h116l-20 -80h-116l-61 -233h116l-20 -80h-55q-51 -33 -72.5 -55.5t-27.5 -46.5q-9 -33 26 -33q19 0 48 15l-17 -69q-30 -13 -63 -13q-36 0 -55.5 22.5t-10.5 59.5q4 13 10 27t18.5 28.5t32.5 30.5t51 34h-97z" />
    <glyph glyph-name="Ecaron" unicode="&#x11a;" horiz-adv-x="287" 
d="M366 796l57 58h74l-115 -112h-60l-57 112h74zM45 0l185 718h212l-20 -80h-116l-64 -245h116l-20 -80h-116l-61 -233h116l-20 -80h-212z" />
    <glyph glyph-name="Dcaron" unicode="&#x10e;" horiz-adv-x="387" 
d="M387 796l57 58h74l-115 -112h-60l-57 112h74zM163 87h72q38 0 46 32l119 460q13 52 -29 52h-67zM230 718h167q134 0 100 -138l-124 -476q-26 -104 -141 -104h-187z" />
    <glyph glyph-name="uni0110" unicode="&#x110;" horiz-adv-x="387" 
d="M222 313l-59 -226h72q38 0 46 32l119 460q13 52 -29 52h-67l-62 -238h79l-20 -80h-79zM126 313h-35l20 80h35l84 325h167q134 0 100 -138l-124 -476q-26 -104 -141 -104h-187z" />
    <glyph glyph-name="Nacute" unicode="&#x143;" horiz-adv-x="385" 
d="M409 742h-68l79 128h88zM429 718h96l-185 -718h-96l37 143l-19 327l-121 -470h-96l185 718h96l14 -347z" />
    <glyph glyph-name="Ncaron" unicode="&#x147;" horiz-adv-x="385" 
d="M397 796l57 58h74l-115 -112h-60l-57 112h74zM429 718h96l-185 -718h-96l37 143l-19 327l-121 -470h-96l185 718h96l14 -347z" />
    <glyph glyph-name="uni0150" unicode="&#x150;" horiz-adv-x="402" 
d="M348 732h-63l89 132h86zM474 732h-63l90 132h86zM248 80q33 0 43 37l125 484q10 37 -28 37h-45q-37 0 -47 -37l-125 -484q-10 -37 28 -37h49zM161 0q-117 0 -85 122l122 473q33 123 147 123h82q116 0 83 -123l-122 -473q-32 -122 -147 -122h-80z" />
    <glyph glyph-name="Rcaron" unicode="&#x158;" horiz-adv-x="373" 
d="M382 796l57 58h74l-115 -112h-60l-57 112h74zM227 372h63q43 0 56 52l40 155q13 52 -29 52h-63zM252 0l12 290h-58l-75 -290h-96l185 718h188q111 0 78 -123l-45 -177q-25 -94 -88 -119l-10 -299h-91z" />
    <glyph glyph-name="Uring" unicode="&#x16e;" horiz-adv-x="392" 
d="M435 792q5 15 -2.5 25t-21.5 10t-26.5 -10t-17.5 -25q-4 -15 3.5 -25t21.5 -10t26.5 10t16.5 25zM476 792q-8 -33 -35 -55t-59 -22q-30 0 -47.5 22t-9.5 55q9 34 38 56t59 22q32 0 47.5 -22t6.5 -56zM532 718l-150 -582q-36 -136 -172 -136h-29q-136 0 -101 137l150 581
h96l-151 -584q-13 -47 30 -47h24q43 0 56 47l151 584h96z" />
    <glyph glyph-name="uni0170" unicode="&#x170;" horiz-adv-x="392" 
d="M345 742h-63l89 132h86zM471 742h-63l90 132h86zM532 718l-150 -582q-36 -136 -172 -136h-29q-136 0 -101 137l150 581h96l-151 -584q-13 -47 30 -47h24q43 0 56 47l151 584h96z" />
    <glyph glyph-name="uni0162" unicode="&#x162;" horiz-adv-x="300" 
d="M60 -137h46q25 0 31 24l4 14q7 28 -18 28h-40l184 709h-92l20 80h280l-20 -80h-92l-165 -638h-44l-9 -31h9q56 0 40 -58l-9 -38q-15 -54 -71 -55h-66z" />
    <glyph glyph-name="racute" unicode="&#x155;" horiz-adv-x="373" 
d="M377 742h-68l79 128h88zM227 372h63q43 0 56 52l40 155q13 52 -29 52h-63zM252 0l12 290h-58l-75 -290h-96l185 718h188q111 0 78 -123l-45 -177q-25 -94 -88 -119l-10 -299h-91z" />
    <glyph glyph-name="abreve" unicode="&#x103;" 
d="M368 853q-2 -26 4 -39t25 -13q16 0 30 13t24 39h59q-12 -29 -27.5 -50t-33 -34.5t-35 -20t-32.5 -6.5q-18 0 -33 6.5t-25.5 20t-14.5 34.5t1 50h58zM336 350l62 239q10 42 -31 42h-26q-43 0 -53 -42l-62 -239h110zM136 0h-96l153 595q33 123 147 123h72q116 0 83 -123
l-153 -595h-96l68 263h-110z" />
    <glyph glyph-name="lacute" unicode="&#x13a;" horiz-adv-x="186" 
d="M313 754h-68l79 128h88zM45 0l185 718h96l-185 -718h-96z" />
    <glyph glyph-name="cacute" unicode="&#x107;" horiz-adv-x="367" 
d="M419 742h-68l79 128h88zM385 188l-17 -66q-32 -122 -146 -122h-62q-116 0 -84 122l123 474q32 122 146 122h62q116 0 84 -122l-26 -101h-96l26 101q10 42 -32 42h-19q-39 0 -49 -42l-123 -474q-11 -42 27 -42h24q38 0 49 42l17 66h96z" />
    <glyph glyph-name="ccaron" unicode="&#x10d;" horiz-adv-x="367" 
d="M398 796l57 58h74l-115 -112h-60l-57 112h74zM385 188l-17 -66q-32 -122 -146 -122h-62q-116 0 -84 122l123 474q32 122 146 122h62q116 0 84 -122l-26 -101h-96l26 101q10 42 -32 42h-19q-39 0 -49 -42l-123 -474q-11 -42 27 -42h24q38 0 49 42l17 66h96z" />
    <glyph glyph-name="eogonek" unicode="&#x119;" horiz-adv-x="287" 
d="M45 0l185 718h212l-20 -80h-116l-64 -245h116l-20 -80h-116l-61 -233h116l-20 -80h-55q-51 -33 -72.5 -55.5t-27.5 -46.5q-9 -33 26 -33q19 0 48 15l-17 -69q-30 -13 -63 -13q-36 0 -55.5 22.5t-10.5 59.5q4 13 10 27t18.5 28.5t32.5 30.5t51 34h-97z" />
    <glyph glyph-name="ecaron" unicode="&#x11b;" horiz-adv-x="287" 
d="M366 796l57 58h74l-115 -112h-60l-57 112h74zM45 0l185 718h212l-20 -80h-116l-64 -245h116l-20 -80h-116l-61 -233h116l-20 -80h-212z" />
    <glyph glyph-name="dcaron" unicode="&#x10f;" horiz-adv-x="387" 
d="M395 796l57 58h74l-115 -112h-60l-57 112h74zM163 87h72q38 0 46 32l119 460q13 52 -29 52h-67zM230 718h167q134 0 100 -138l-124 -476q-26 -104 -141 -104h-187z" />
    <glyph glyph-name="uni0111" unicode="&#x111;" horiz-adv-x="387" 
d="M222 313l-59 -226h72q38 0 46 32l119 460q13 52 -29 52h-67l-62 -238h78l-20 -80h-78zM126 313h-35l20 80h35l84 325h167q134 0 100 -138l-124 -476q-26 -104 -141 -104h-187z" />
    <glyph glyph-name="nacute" unicode="&#x144;" horiz-adv-x="385" 
d="M409 742h-68l79 128h88zM429 718h96l-185 -718h-96l37 143l-19 327l-121 -470h-96l185 718h96l14 -347z" />
    <glyph glyph-name="ncaron" unicode="&#x148;" horiz-adv-x="385" 
d="M397 796l57 58h74l-115 -112h-60l-57 112h74zM429 718h96l-185 -718h-96l37 143l-19 327l-121 -470h-96l185 718h96l14 -347z" />
    <glyph glyph-name="uni0151" unicode="&#x151;" horiz-adv-x="402" 
d="M348 732h-63l89 132h86zM474 732h-63l90 132h86zM248 80q33 0 43 37l125 484q10 37 -28 37h-45q-37 0 -47 -37l-125 -484q-10 -37 28 -37h49zM161 0q-117 0 -85 122l122 473q33 123 147 123h82q116 0 83 -123l-122 -473q-32 -122 -147 -122h-80z" />
    <glyph glyph-name="rcaron" unicode="&#x159;" horiz-adv-x="373" 
d="M382 796l57 58h74l-115 -112h-60l-57 112h74zM227 372h63q43 0 56 52l40 155q13 52 -29 52h-63zM252 0l12 290h-58l-75 -290h-96l185 718h188q111 0 78 -123l-45 -177q-25 -94 -88 -119l-10 -299h-91z" />
    <glyph glyph-name="uring" unicode="&#x16f;" horiz-adv-x="392" 
d="M435 792q5 15 -2.5 25t-21.5 10t-26.5 -10t-17.5 -25q-4 -15 3.5 -25t21.5 -10t26.5 10t16.5 25zM476 792q-8 -33 -35 -55t-59 -22q-30 0 -47.5 22t-9.5 55q9 34 38 56t59 22q32 0 47.5 -22t6.5 -56zM532 718l-150 -582q-36 -136 -172 -136h-29q-136 0 -101 137l150 581
h96l-151 -584q-13 -47 30 -47h24q43 0 56 47l151 584h96z" />
    <glyph glyph-name="uni0171" unicode="&#x171;" horiz-adv-x="392" 
d="M345 742h-63l89 132h86zM471 742h-63l90 132h86zM532 718l-150 -582q-36 -136 -172 -136h-29q-136 0 -101 137l150 581h96l-151 -584q-13 -47 30 -47h24q43 0 56 47l151 584h96z" />
    <glyph glyph-name="uni0163" unicode="&#x163;" horiz-adv-x="300" 
d="M60 -137h46q25 0 31 24l4 14q7 28 -18 28h-40l184 709h-92l20 80h280l-20 -80h-92l-165 -638h-44l-9 -31h9q56 0 40 -58l-9 -38q-15 -54 -71 -55h-66z" />
    <glyph glyph-name="Gbreve" unicode="&#x11e;" horiz-adv-x="390" 
d="M372 843q-2 -26 3.5 -39t24.5 -13q16 0 30.5 13t24.5 39h59q-12 -29 -27.5 -50t-33 -34.5t-35.5 -20t-33 -6.5q-18 0 -33 6.5t-25 20t-14 34.5t1 50h58zM435 353l-90 -353h-185q-116 0 -84 122l123 474q32 122 146 122h62q116 0 84 -122l-26 -101h-96l24 94q10 42 -32 42
h-19q-39 0 -49 -42l-119 -460q-11 -42 32 -42h64l48 186h-58l21 80h154z" />
    <glyph glyph-name="uni0130" unicode="&#x130;" horiz-adv-x="186" 
d="M369 864l-31 -122h-102l31 122h102zM45 0l185 718h96l-185 -718h-96z" />
    <glyph glyph-name="gbreve" unicode="&#x11f;" horiz-adv-x="390" 
d="M372 843q-2 -26 3.5 -39t24.5 -13q16 0 30.5 13t24.5 39h59q-12 -29 -27.5 -50t-33 -34.5t-35.5 -20t-33 -6.5q-18 0 -33 6.5t-25 20t-14 34.5t1 50h58zM435 353l-90 -353h-185q-116 0 -84 122l123 474q32 122 146 122h62q116 0 84 -122l-26 -101h-96l24 94q10 42 -32 42
h-19q-39 0 -49 -42l-119 -460q-11 -42 32 -42h64l48 186h-58l21 80h154z" />
    <glyph glyph-name="uni0410" unicode="&#x410;" 
d="M336 350l62 239q10 42 -31 42h-26q-43 0 -53 -42l-62 -239h110zM136 0h-96l153 595q33 123 147 123h72q116 0 83 -123l-153 -595h-96l68 263h-110z" />
    <glyph glyph-name="uni0430" unicode="&#x430;" 
d="M336 350l62 239q10 42 -31 42h-26q-43 0 -53 -42l-62 -239h110zM136 0h-96l153 595q33 123 147 123h72q116 0 83 -123l-153 -595h-96l68 263h-110z" />
    <glyph glyph-name="uni0432" unicode="&#x432;" 
d="M242 393h43q28 0 40 10.5t19 36.5l38 146q13 52 -29 52h-47zM161 80h80q31 0 38 31l39 151q13 51 -43 51h-53zM359 355q80 0 59 -77l-44 -171q-27 -107 -136 -107h-193l185 718h154q128 0 95 -130l-40 -152q-18 -65 -80 -81z" />
    <glyph glyph-name="uni0435" unicode="&#x435;" horiz-adv-x="287" 
d="M45 0l185 718h212l-20 -80h-116l-64 -245h116l-20 -80h-116l-61 -233h116l-20 -80h-212z" />
    <glyph glyph-name="uni0440" unicode="&#x440;" horiz-adv-x="372" 
d="M233 358h26q22 0 38 1.5t26.5 7.5t17.5 17.5t12 30.5l49 191q11 32 -25 32h-71zM141 0h-96l185 718h181q117 0 84 -123l-50 -194q-10 -38 -25 -62.5t-38.5 -39t-56.5 -20.5t-78 -6h-36z" />
    <glyph glyph-name="uni0441" unicode="&#x441;" horiz-adv-x="367" 
d="M385 188l-17 -66q-32 -122 -146 -122h-62q-116 0 -84 122l123 474q32 122 146 122h62q116 0 84 -122l-26 -101h-96l26 101q10 42 -32 42h-19q-39 0 -49 -42l-123 -474q-11 -42 27 -42h24q38 0 49 42l17 66h96z" />
    <glyph glyph-name="uni0442" unicode="&#x442;" horiz-adv-x="300" 
d="M363 638l-165 -638h-96l165 638h-92l20 80h280l-20 -80h-92z" />
    <glyph glyph-name="uni0443" unicode="&#x443;" horiz-adv-x="350" 
d="M286 423l144 295h95l-356 -718h-101l119 234l8 484h95l-7 -295h3z" />
    <glyph glyph-name="uni041E" unicode="&#x41e;" horiz-adv-x="402" 
d="M248 80q33 0 43 37l125 484q10 37 -28 37h-45q-37 0 -47 -37l-125 -484q-10 -37 28 -37h49zM161 0q-117 0 -85 122l122 473q33 123 147 123h82q116 0 83 -123l-122 -473q-32 -122 -147 -122h-80z" />
    <glyph glyph-name="uni041C" unicode="&#x41c;" horiz-adv-x="480" 
d="M316 296l198 422h106l-185 -718h-96l131 470l-160 -340h-74l16 340l-111 -470h-96l185 718h106z" />
    <glyph glyph-name="uni041D" unicode="&#x41d;" horiz-adv-x="392" 
d="M251 0l81 313h-110l-81 -313h-96l185 718h96l-84 -325h110l84 325h96l-185 -718h-96z" />
    <glyph glyph-name="uni042F" unicode="&#x42f;" horiz-adv-x="377" 
d="M410 631h-63q-44 0 -57 -52l-40 -155q-13 -52 30 -52h63zM35 0l144 299q-51 26 -26 119l45 177q33 123 142 123h188l-185 -718h-96l75 290h-58l-138 -290h-91z" />
    <glyph glyph-name="uni0412" unicode="&#x412;" 
d="M242 393h43q28 0 40 10.5t19 36.5l38 146q13 52 -29 52h-47zM161 80h80q31 0 38 31l39 151q13 51 -43 51h-53zM359 355q80 0 59 -77l-44 -171q-27 -107 -136 -107h-193l185 718h154q128 0 95 -130l-40 -152q-18 -65 -80 -81z" />
    <glyph glyph-name="uni0420" unicode="&#x420;" horiz-adv-x="372" 
d="M232 353h16q45 0 71 17t36 55l47 181q11 32 -25 32h-71zM141 0h-96l185 718h181q117 0 84 -123l-42 -164q-20 -75 -77.5 -116.5t-148.5 -41.5h-16z" />
    <glyph glyph-name="uni0421" unicode="&#x421;" horiz-adv-x="367" 
d="M385 188l-17 -66q-32 -122 -146 -122h-62q-116 0 -84 122l123 474q32 122 146 122h62q116 0 84 -122l-26 -101h-96l26 101q10 42 -32 42h-19q-39 0 -49 -42l-123 -474q-11 -42 27 -42h24q38 0 49 42l17 66h96z" />
    <glyph glyph-name="uni0422" unicode="&#x422;" horiz-adv-x="300" 
d="M363 638l-165 -638h-96l165 638h-92l20 80h280l-20 -80h-92z" />
    <glyph glyph-name="uni0423" unicode="&#x423;" horiz-adv-x="350" 
d="M286 423l144 295h95l-356 -718h-101l119 234l8 484h95l-7 -295h3z" />
    <glyph glyph-name="uni0455" unicode="&#x455;" horiz-adv-x="370" 
d="M164 110q-8 -30 21 -30h41q30 0 36 30l38 146q5 19 0 26t-14 13l-91 71q-27 22 -29.5 51t4.5 59l30 129q17 62 52 87.5t93 25.5h51q116 0 83 -123l-25 -100h-96l29 112q9 31 -22 31h-28q-32 0 -40 -32l-37 -145q-5 -20 1 -26.5t17 -13.5l90 -72q24 -17 27.5 -38.5
t-5.5 -59.5l-31 -140q-16 -61 -51.5 -86t-93.5 -25h-59q-116 0 -81 132l14 55h96z" />
    <glyph glyph-name="uni0405" unicode="&#x405;" horiz-adv-x="370" 
d="M164 110q-8 -30 21 -30h41q30 0 36 30l38 146q5 19 0 26t-14 13l-91 71q-27 22 -29.5 51t4.5 59l30 129q17 62 52 87.5t93 25.5h51q116 0 83 -123l-25 -100h-96l29 112q9 31 -22 31h-28q-32 0 -40 -32l-37 -145q-5 -20 1 -26.5t17 -13.5l90 -72q24 -17 27.5 -38.5
t-5.5 -59.5l-31 -140q-16 -61 -51.5 -86t-93.5 -25h-59q-116 0 -81 132l14 55h96z" />
    <glyph glyph-name="uni0433" unicode="&#x433;" horiz-adv-x="277" 
d="M422 638h-116l-165 -638h-96l185 718h212z" />
    <glyph glyph-name="uni042C" unicode="&#x42c;" horiz-adv-x="372" 
d="M161 80h71q17 0 29.5 14.5t18.5 37.5l33 129q5 19 5.5 29.5t-5 15.5t-16.5 6t-30 1h-45zM242 393h46q45 0 73 -7.5t41.5 -24t14 -43t-9.5 -63.5l-28 -112q-18 -69 -56.5 -106t-96.5 -37h-181l185 718h96z" />
    <glyph glyph-name="uni0413" unicode="&#x413;" horiz-adv-x="277" 
d="M422 638h-116l-165 -638h-96l185 718h212z" />
    <glyph glyph-name="uni0458" unicode="&#x458;" horiz-adv-x="267" 
d="M40 80h76q31 0 40 38l155 600h96l-154 -597q-31 -121 -142 -121h-91z" />
    <glyph glyph-name="uni0406" unicode="&#x406;" horiz-adv-x="186" 
d="M45 0l185 718h96l-185 -718h-96z" />
    <glyph glyph-name="uni0407" unicode="&#x407;" horiz-adv-x="186" 
d="M281 842l-25 -100h-80l25 100h80zM421 842l-25 -100h-80l25 100h80zM45 0l185 718h96l-185 -718h-96z" />
    <glyph glyph-name="uni2116" unicode="&#x2116;" horiz-adv-x="637" 
d="M380 0l16 64h212l-16 -64h-212zM579 392q-22 0 -28 -23l-50 -193q-6 -23 16 -23h15q23 0 29 23l50 193q6 23 -17 23h-15zM489 91q-86 0 -64 85l50 194q22 85 108 85h39q87 0 65 -85l-50 -194q-22 -85 -109 -85h-39zM429 718h96l-185 -718h-96l37 143l-19 327l-121 -470
h-96l185 718h96l14 -347z" />
    <glyph glyph-name="uni0454" unicode="&#x454;" horiz-adv-x="367" 
d="M224 323l-52 -201q-11 -42 27 -42h24q38 0 49 42l17 66h96l-17 -66q-32 -122 -146 -122h-62q-116 0 -84 122l123 474q32 122 146 122h62q116 0 84 -122l-26 -101h-96l26 101q10 42 -32 42h-19q-39 0 -49 -42l-53 -203h97l-18 -70h-97z" />
    <glyph glyph-name="uni0408" unicode="&#x408;" horiz-adv-x="267" 
d="M40 80h76q31 0 40 38l155 600h96l-154 -597q-31 -121 -142 -121h-91z" />
    <glyph glyph-name="uni0453" unicode="&#x453;" horiz-adv-x="277" 
d="M340 742h-68l79 128h88zM422 638h-116l-165 -638h-96l185 718h212z" />
    <glyph glyph-name="uni0403" unicode="&#x403;" horiz-adv-x="277" 
d="M340 742h-68l79 128h88zM422 638h-116l-165 -638h-96l185 718h212z" />
    <glyph glyph-name="uni0402" unicode="&#x402;" horiz-adv-x="444" 
d="M234 -14h31q20 0 30.5 13t14.5 29l60 233q5 19 5.5 29.5t-4 15.5t-16 6t-30.5 1h-46l-81 -313h-96l165 638h-92l20 80h280l-20 -80h-92l-64 -245h61q45 0 71 -6t37.5 -20.5t10 -39.5t-11.5 -62l-61 -235q-17 -69 -53.5 -96.5t-94.5 -27.5h-45z" />
    <glyph glyph-name="uni0418" unicode="&#x418;" horiz-adv-x="385" 
d="M244 0l97 378l-174 -275l-26 -103h-96l185 718h96l-100 -387l180 297l23 90h96l-185 -718h-96z" />
    <glyph glyph-name="uni0415" unicode="&#x415;" horiz-adv-x="287" 
d="M45 0l185 718h212l-20 -80h-116l-64 -245h116l-20 -80h-116l-61 -233h116l-20 -80h-212z" />
    <glyph glyph-name="uni0425" unicode="&#x425;" horiz-adv-x="330" 
d="M312 366l8 -366h-86l-4 251h-2l-132 -251h-86l195 366v352h87l-3 -235h2l117 235h87z" />
    <glyph glyph-name="uni0445" unicode="&#x445;" horiz-adv-x="330" 
d="M312 366l8 -366h-86l-4 251h-2l-132 -251h-86l195 366v352h87l-3 -235h2l117 235h87z" />
    <glyph glyph-name="uni044A" unicode="&#x44a;" horiz-adv-x="431" 
d="M220 80h71q17 0 29.5 14.5t18.5 37.5l33 129q5 19 5.5 29.5t-5 15.5t-16.5 6t-30 1h-45zM301 393h46q45 0 73 -7.5t41.5 -24t14 -43t-9.5 -63.5l-28 -112q-18 -69 -56.5 -106t-96.5 -37h-181l165 638h-104l20 80h200z" />
    <glyph glyph-name="uni042B" unicode="&#x42b;" horiz-adv-x="566" 
d="M425 0l185 718h96l-185 -718h-96zM161 80h71q17 0 29.5 14.5t18.5 37.5l33 129q5 19 5.5 29.5t-5 15.5t-16.5 6t-30 1h-45zM242 393h46q45 0 73 -7.5t41.5 -24t14 -43t-9.5 -63.5l-28 -112q-18 -69 -56.5 -106t-96.5 -37h-181l185 718h96z" />
    <glyph glyph-name="uni042A" unicode="&#x42a;" horiz-adv-x="431" 
d="M220 80h71q17 0 29.5 14.5t18.5 37.5l33 129q5 19 5.5 29.5t-5 15.5t-16.5 6t-30 1h-45zM301 393h56q45 0 72 -6t39 -20.5t11.5 -39.5t-10.5 -62l-37 -142q-17 -69 -53 -96t-94 -27h-181l165 638h-104l20 80h200z" />
    <glyph glyph-name="uni042D" unicode="&#x42d;" horiz-adv-x="367" 
d="M328 395l52 201q10 42 -27 42h-24q-39 0 -49 -42l-17 -66h-96l17 66q32 122 146 122h62q116 0 84 -122l-123 -474q-32 -122 -146 -122h-62q-116 0 -84 122l26 101h96l-26 -101q-11 -42 32 -42h19q38 0 49 42l53 203h-97l18 70h97z" />
    <glyph glyph-name="uni044C" unicode="&#x44c;" horiz-adv-x="372" 
d="M161 80h67q22 0 35 18t17 34l33 129q5 19 6.5 29.5t-2 15.5t-13 6t-26.5 1h-56zM252 393h66q45 0 68.5 -7.5t31 -24t3.5 -43t-14 -63.5l-33 -129q-16 -62 -53 -94t-95 -32h-181l185 718h96z" />
    <glyph glyph-name="uni044F" unicode="&#x44f;" horiz-adv-x="373" 
d="M410 631h-63q-44 0 -57 -52l-40 -155q-13 -52 30 -52h63zM35 0l144 299q-51 26 -26 119l45 177q33 123 142 123h188l-185 -718h-96l75 290h-58l-138 -290h-91z" />
    <glyph glyph-name="uni043E" unicode="&#x43e;" horiz-adv-x="402" 
d="M248 80q33 0 43 37l125 484q10 37 -28 37h-45q-37 0 -47 -37l-125 -484q-10 -37 28 -37h49zM161 0q-117 0 -85 122l122 473q33 123 147 123h82q116 0 83 -123l-122 -473q-32 -122 -147 -122h-80z" />
    <glyph glyph-name="uni043D" unicode="&#x43d;" horiz-adv-x="392" 
d="M251 0l81 313h-110l-81 -313h-96l185 718h96l-84 -325h110l84 325h96l-185 -718h-96z" />
    <glyph glyph-name="uni043C" unicode="&#x43c;" horiz-adv-x="480" 
d="M316 296l198 422h106l-185 -718h-96l131 470l-160 -340h-74l16 340l-111 -470h-96l185 718h106z" />
    <glyph glyph-name="uni043A" unicode="&#x43a;" horiz-adv-x="354" 
d="M233 356q35 32 56 70.5t37 78t30.5 76.5t36 66.5t53.5 48.5t83 22l-22 -88q-29 0 -46 -29.5t-34 -72.5t-40 -91.5t-64 -85.5l31 -351h-96l-27 350l-90 -350h-96l185 718h96z" />
    <glyph glyph-name="uni044B" unicode="&#x44b;" horiz-adv-x="566" 
d="M425 0l185 718h96l-185 -718h-96zM161 80h71q17 0 29.5 14.5t18.5 37.5l33 129q5 19 5.5 29.5t-5 15.5t-16.5 6t-30 1h-45zM242 393h56q45 0 72 -5.5t39.5 -19t12.5 -35.5q0 -21 -8 -54l-38 -146q-18 -69 -55 -101t-95 -32h-181l185 718h96z" />
    <glyph glyph-name="uni041A" unicode="&#x41a;" horiz-adv-x="354" 
d="M233 356q35 32 56 70.5t37 78t30.5 76.5t36 66.5t53.5 48.5t83 22l-22 -88q-29 0 -46 -29.5t-34 -72.5t-40 -91.5t-64 -85.5l31 -351h-96l-27 350l-90 -350h-96l185 718h96z" />
    <glyph glyph-name="uni0416" unicode="&#x416;" horiz-adv-x="522" 
d="M398 718h96l-93 -362q35 32 56 70.5t37 78t30.5 76.5t36 66.5t53.5 48.5t83 22l-22 -88q-29 0 -46 -29.5t-34 -72.5t-40 -91.5t-64 -85.5l31 -351h-96l-27 350l-90 -350h-96l90 350l-207 -350h-96l211 351q-14 25 -17 55t-1 61t6.5 60.5t5 52t-6 36.5t-25.5 14l22 88
q49 -3 71.5 -22t28.5 -48.5t1.5 -66.5t-8.5 -76.5t-2.5 -78t19.5 -70.5z" />
    <glyph glyph-name="uni0427" unicode="&#x427;" horiz-adv-x="372" 
d="M231 0l64 250h-85q-116 0 -84 123l89 345h96l-92 -356q-9 -32 26 -32h71l100 388h96l-185 -718h-96z" />
    <glyph glyph-name="uni0447" unicode="&#x447;" horiz-adv-x="372" 
d="M245 0l81 313h-92q-58 0 -77 25.5t-3 87.5l75 292h96l-76 -293q-9 -32 26 -32h71l84 325h96l-185 -718h-96z" />
    <glyph glyph-name="uni0434" unicode="&#x434;" horiz-adv-x="451" 
d="M473 638h-96q-23 -87 -41.5 -151.5t-35 -114t-32.5 -87.5t-32 -71t-34.5 -65t-39.5 -69h166zM96 0l-48 -182h-95l67 262h36q25 40 46 77t40 76t37 84.5t37 103t39.5 130t45.5 167.5h288l-165 -638h47l-68 -262h-96l48 182h-259z" />
    <glyph glyph-name="uni040A" unicode="&#x40a;" horiz-adv-x="578" 
d="M367 80h71q9 0 16.5 5t14 13t11 17t6.5 17l33 129q5 19 5.5 29.5t-4 15.5t-16 6t-30.5 1h-46zM448 393h56q45 0 71.5 -7.5t38 -24t10.5 -43t-11 -63.5l-31 -122q-18 -69 -55 -101t-95 -32h-181l81 313h-110l-81 -313h-96l185 718h96l-84 -325h110l84 325h96z" />
    <glyph glyph-name="uni040B" unicode="&#x40b;" horiz-adv-x="444" 
d="M363 638l-64 -245h85q117 0 84 -123l-69 -270h-96l72 281q11 32 -25 32h-71l-81 -313h-96l165 638h-92l20 80h280l-20 -80h-92z" />
    <glyph glyph-name="uni0456" unicode="&#x456;" horiz-adv-x="186" 
d="M329 718l-31 -122h-102l31 122h102zM45 0l143 556h96l-143 -556h-96z" />
    <glyph glyph-name="uni0451" unicode="&#x451;" horiz-adv-x="287" 
d="M484 865l-26 -100h-80l26 100h80zM344 865l-26 -100h-80l26 100h80zM45 0l185 718h212l-20 -80h-116l-64 -245h116l-20 -80h-116l-61 -233h116l-20 -80h-212z" />
    <glyph glyph-name="uni041F" unicode="&#x41f;" horiz-adv-x="398" 
d="M45 0l185 718h308l-185 -718h-96l165 638h-116l-165 -638h-96z" />
    <glyph glyph-name="uni043F" unicode="&#x43f;" horiz-adv-x="398" 
d="M45 0l185 718h308l-185 -718h-96l165 638h-116l-165 -638h-96z" />
    <glyph glyph-name="uni0404" unicode="&#x404;" horiz-adv-x="367" 
d="M224 323l-52 -201q-11 -42 27 -42h24q38 0 49 42l17 66h96l-17 -66q-32 -122 -146 -122h-62q-116 0 -84 122l123 474q32 122 146 122h62q116 0 84 -122l-26 -101h-96l26 101q10 42 -32 42h-19q-39 0 -49 -42l-53 -203h97l-18 -70h-97z" />
    <glyph glyph-name="uni044E" unicode="&#x44e;" horiz-adv-x="581" 
d="M427 80q33 0 43 37l125 484q10 37 -28 37h-45q-37 0 -47 -37l-125 -484q-10 -37 28 -37h49zM340 0q-117 0 -85 122l56 216h-83l-87 -338h-96l185 718h96l-75 -292h83l43 169q33 123 147 123h82q116 0 83 -123l-122 -473q-32 -122 -147 -122h-80z" />
    <glyph glyph-name="uni042E" unicode="&#x42e;" horiz-adv-x="581" 
d="M427 80q33 0 43 37l125 484q10 37 -28 37h-45q-37 0 -47 -37l-125 -484q-10 -37 28 -37h49zM340 0q-117 0 -85 122l56 216h-83l-87 -338h-96l185 718h96l-75 -292h83l43 169q33 123 147 123h82q116 0 83 -123l-122 -473q-32 -122 -147 -122h-80z" />
    <glyph glyph-name="uni0438" unicode="&#x438;" horiz-adv-x="385" 
d="M244 0l97 378l-174 -275l-26 -103h-96l185 718h96l-100 -387l180 297l23 90h96l-185 -718h-96z" />
    <glyph glyph-name="uni0419" unicode="&#x419;" horiz-adv-x="385" 
d="M369 853q-2 -26 4 -39t25 -13q16 0 30 13t24 39h59q-12 -29 -27.5 -50t-33 -34.5t-35 -20t-32.5 -6.5q-18 0 -33 6.5t-25.5 20t-14.5 34.5t1 50h58zM244 0l97 378l-174 -275l-26 -103h-96l185 718h96l-100 -387l180 297l23 90h96l-185 -718h-96z" />
    <glyph glyph-name="uni0411" unicode="&#x411;" horiz-adv-x="372" 
d="M161 80h71q17 0 29.5 14.5t18.5 37.5l47 181q5 19 5 29q0 11 -5 16t-16.5 6t-30.5 1h-45zM256 445h46q45 0 73 -7.5t41.5 -24t14 -43t-9.5 -63.5l-42 -164q-18 -69 -56.5 -106t-96.5 -37h-181l185 718h266l-20 -79h-170z" />
    <glyph glyph-name="uni0401" unicode="&#x401;" horiz-adv-x="287" 
d="M484 865l-26 -100h-80l26 100h80zM344 865l-26 -100h-80l26 100h80zM45 0l185 718h212l-20 -80h-116l-64 -245h116l-20 -80h-116l-61 -233h116l-20 -80h-212z" />
    <glyph glyph-name="uni045B" unicode="&#x45b;" horiz-adv-x="387" 
d="M45 0l139 538h-45l20 80h45l26 100h96l-26 -100h132l-20 -80h-132l-38 -145h85q58 0 82 -21t8 -82l-75 -290h-96l72 281q11 32 -25 32h-71l-81 -313h-96z" />
    <glyph glyph-name="uni045A" unicode="&#x45a;" horiz-adv-x="578" 
d="M367 80h71q17 0 29.5 13t15.5 29l36 139q5 19 5.5 29.5t-4 15.5t-16 6t-30.5 1h-46zM448 393h66q45 0 70.5 -6t35.5 -20.5t8 -39.5t-12 -62l-41 -157q-9 -34 -21.5 -55t-30 -33t-40 -16t-51.5 -4h-181l81 313h-110l-81 -313h-96l185 718h96l-84 -325h110l84 325h96z" />
    <glyph glyph-name="uni0439" unicode="&#x439;" horiz-adv-x="385" 
d="M369 853q-2 -26 4 -39t25 -13q16 0 30 13t24 39h59q-12 -29 -27.5 -50t-33 -34.5t-35 -20t-32.5 -6.5q-18 0 -33 6.5t-25.5 20t-14.5 34.5t1 50h58zM244 0l97 378l-174 -275l-26 -103h-96l185 718h96l-100 -387l180 297l23 90h96l-185 -718h-96z" />
    <glyph glyph-name="uni0457" unicode="&#x457;" horiz-adv-x="186" 
d="M281 842l-25 -100h-80l25 100h80zM421 842l-25 -100h-80l25 100h80zM45 0l185 718h96l-185 -718h-96z" />
    <glyph glyph-name="uni044D" unicode="&#x44d;" horiz-adv-x="367" 
d="M328 395l52 201q10 42 -27 42h-24q-39 0 -49 -42l-17 -66h-96l17 66q32 122 146 122h62q116 0 84 -122l-123 -474q-32 -122 -146 -122h-62q-116 0 -84 122l26 101h96l-26 -101q-11 -42 32 -42h19q38 0 49 42l53 203h-97l18 70h97z" />
    <glyph glyph-name="uni0428" unicode="&#x428;" horiz-adv-x="610" 
d="M750 718l-185 -718h-520l185 718h96l-165 -638h116l165 638h96l-165 -638h116l165 638h96z" />
    <glyph glyph-name="uni0429" unicode="&#x429;" horiz-adv-x="610" 
d="M466 -182l48 182h-469l185 718h96l-165 -638h116l165 638h96l-165 -638h116l165 638h96l-181 -700h45l-52 -200h-96z" />
    <glyph glyph-name="uni0431" unicode="&#x431;" horiz-adv-x="372" 
d="M161 80h71q17 0 29.5 14.5t18.5 37.5l47 181q5 19 5 29q0 11 -5 16t-16.5 6t-30.5 1h-45zM256 445h46q45 0 73 -7.5t41.5 -24t14 -43t-9.5 -63.5l-42 -164q-18 -69 -56.5 -106t-96.5 -37h-181l185 718h266l-20 -79h-170z" />
    <glyph glyph-name="uni040E" unicode="&#x40e;" horiz-adv-x="350" 
d="M348 853q-2 -26 4 -39t25 -13q16 0 30 13t24 39h59q-12 -29 -27.5 -50t-33 -34.5t-35 -20t-32.5 -6.5q-18 0 -33 6.5t-25.5 20t-14.5 34.5t1 50h58zM286 423l144 295h95l-356 -718h-101l119 234l8 484h95l-7 -295h3z" />
    <glyph glyph-name="uni045E" unicode="&#x45e;" horiz-adv-x="350" 
d="M348 853q-2 -26 4 -39t25 -13q16 0 30 13t24 39h59q-12 -29 -27.5 -50t-33 -34.5t-35 -20t-32.5 -6.5q-18 0 -33 6.5t-25.5 20t-14.5 34.5t1 50h58zM286 423l144 295h95l-356 -718h-101l119 234l8 484h95l-7 -295h3z" />
    <glyph glyph-name="uni045F" unicode="&#x45f;" horiz-adv-x="398" 
d="M104 -182l48 182h-107l185 718h96l-165 -638h116l165 638h96l-185 -718h-105l-48 -182h-96z" />
    <glyph glyph-name="uni0426" unicode="&#x426;" horiz-adv-x="398" 
d="M538 718l-181 -700h45l-52 -200h-96l48 182h-257l185 718h96l-165 -638h116l165 638h96z" />
    <glyph glyph-name="uni040F" unicode="&#x40f;" horiz-adv-x="398" 
d="M104 -182l48 182h-107l185 718h96l-165 -638h116l165 638h96l-185 -718h-105l-48 -182h-96z" />
    <glyph glyph-name="uni0448" unicode="&#x448;" horiz-adv-x="610" 
d="M750 718l-185 -718h-520l185 718h96l-165 -638h116l165 638h96l-165 -638h116l165 638h96z" />
    <glyph glyph-name="uni0444" unicode="&#x444;" horiz-adv-x="506" 
d="M225 80l145 558h-27q-37 0 -47 -37l-125 -484q-10 -37 28 -37h26zM466 638l-145 -558h31q33 0 43 37l125 484q10 37 -28 37h-26zM179 -100l26 100h-44q-117 0 -85 122l122 473q33 123 147 123h45l26 100h96l-26 -100h45q116 0 83 -123l-122 -473q-32 -122 -147 -122h-44
l-26 -100h-96z" />
    <glyph glyph-name="uni0459" unicode="&#x459;" horiz-adv-x="598" 
d="M372 80h71q17 0 29.5 14.5t18.5 37.5l33 129q5 19 5.5 29.5t-5 15.5t-16.5 6t-30 1h-45zM453 393h56q45 0 72 -6t39 -20.5t11.5 -39.5t-10.5 -62l-36 -140q-18 -69 -54 -97t-94 -28h-181l165 638h-116l-134 -516q-32 -122 -146 -122h-25l20 80q44 0 55 42l154 596h308z
" />
    <glyph glyph-name="uni0449" unicode="&#x449;" horiz-adv-x="610" 
d="M466 -182l48 182h-469l185 718h96l-165 -638h116l165 638h96l-165 -638h116l165 638h96l-181 -700h45l-52 -200h-96z" />
    <glyph glyph-name="uni0417" unicode="&#x417;" horiz-adv-x="373" 
d="M353 369q72 -11 57 -71l-46 -176q-32 -122 -146 -122h-65q-116 0 -84 122l17 66h96l-18 -69q-8 -32 20 -32h46q29 0 37 32l42 160q10 45 -35 45h-36l21 81h28q43 0 52 39l40 154q9 32 -22 32h-35q-28 0 -37 -32l-21 -83h-96l20 80q33 123 147 123h56q116 0 83 -123
l-39 -153q-16 -63 -82 -73z" />
    <glyph glyph-name="uni0424" unicode="&#x424;" horiz-adv-x="506" 
d="M225 80l145 558h-27q-37 0 -47 -37l-125 -484q-10 -37 28 -37h26zM466 638l-145 -558h31q33 0 43 37l125 484q10 37 -28 37h-26zM179 -100l26 100h-44q-117 0 -85 122l122 473q33 123 147 123h45l26 100h96l-26 -100h45q116 0 83 -123l-122 -473q-32 -122 -147 -122h-44
l-26 -100h-96z" />
    <glyph glyph-name="uni0446" unicode="&#x446;" horiz-adv-x="398" 
d="M538 718l-181 -700h45l-52 -200h-96l48 182h-257l185 718h96l-165 -638h116l165 638h96z" />
    <glyph glyph-name="uni0436" unicode="&#x436;" horiz-adv-x="522" 
d="M398 718h96l-93 -362q35 32 56 70.5t37 78t30.5 76.5t36 66.5t53.5 48.5t83 22l-22 -88q-29 0 -46 -29.5t-34 -72.5t-40 -91.5t-64 -85.5l31 -351h-96l-27 350l-90 -350h-96l90 350l-207 -350h-96l211 351q-14 25 -17 55t-1 61t6.5 60.5t5 52t-6 36.5t-25.5 14l22 88
q49 -3 71.5 -22t28.5 -48.5t1.5 -66.5t-8.5 -76.5t-2.5 -78t19.5 -70.5z" />
    <glyph glyph-name="uni0437" unicode="&#x437;" horiz-adv-x="373" 
d="M353 369q72 -11 57 -71l-46 -176q-32 -122 -146 -122h-65q-116 0 -84 122l17 66h96l-18 -69q-8 -32 20 -32h46q29 0 37 32l42 160q10 45 -35 45h-36l21 81h28q43 0 52 39l40 154q9 32 -22 32h-35q-28 0 -37 -32l-21 -83h-96l20 80q33 123 147 123h56q116 0 83 -123
l-39 -153q-16 -63 -82 -73z" />
    <glyph glyph-name="uni041B" unicode="&#x41b;" horiz-adv-x="397" 
d="M421 638h-116l-134 -516q-32 -122 -146 -122h-25l20 80q44 0 55 42l154 596h308l-185 -718h-96z" />
    <glyph glyph-name="uni0452" unicode="&#x452;" horiz-adv-x="404" 
d="M194 -14h31q9 0 16.5 5t14 13t10.5 17t6 17l58 223q5 19 5.5 29.5t-4 15.5t-16 6t-30.5 1h-46l-81 -313h-96l139 538h-62l20 80h62l26 100h96l-26 -100h162l-20 -80h-162l-38 -145h56q45 0 71.5 -7.5t38 -24t10.5 -43t-11 -63.5l-55 -216q-18 -69 -55.5 -101t-95.5 -32
h-45z" />
    <glyph glyph-name="uni043B" unicode="&#x43b;" horiz-adv-x="397" 
d="M421 638h-116l-134 -516q-32 -122 -146 -122h-25l21 82q22 0 35 9t20 33l153 594h308l-185 -718h-96z" />
    <glyph glyph-name="uni040C" unicode="&#x40c;" horiz-adv-x="354" 
d="M424 742h-68l79 128h88zM233 356q35 32 56 70.5t37 78t30.5 76.5t36 66.5t53.5 48.5t83 22l-22 -88q-29 0 -46 -29.5t-34 -72.5t-40 -91.5t-64 -85.5l31 -351h-96l-27 350l-90 -350h-96l185 718h96z" />
    <glyph glyph-name="uni0409" unicode="&#x409;" horiz-adv-x="598" 
d="M372 80h71q17 0 29.5 14.5t18.5 37.5l33 129q5 19 5.5 29.5t-5 15.5t-16.5 6t-30 1h-45zM453 393h56q45 0 72 -6t39 -20.5t11.5 -39.5t-10.5 -62l-37 -142q-17 -69 -53 -96t-94 -27h-181l165 638h-116l-134 -516q-32 -122 -146 -122h-25l20 80q44 0 55 42l154 596h308z
" />
    <glyph glyph-name="uni045C" unicode="&#x45c;" horiz-adv-x="354" 
d="M424 742h-68l79 128h88zM233 356q35 32 56 70.5t37 78t30.5 76.5t36 66.5t53.5 48.5t83 22l-22 -88q-29 0 -46 -29.5t-34 -72.5t-40 -91.5t-64 -85.5l31 -351h-96l-27 350l-90 -350h-96l185 718h96z" />
    <glyph glyph-name="uni0414" unicode="&#x414;" horiz-adv-x="451" 
d="M473 638h-96q-23 -87 -41.5 -151.5t-35 -114t-32.5 -87.5t-32 -71t-34.5 -65t-39.5 -69h166zM96 0l-48 -182h-95l67 262h36q25 40 46 77t40 76t37 84.5t37 103t39.5 130t45.5 167.5h288l-165 -638h47l-68 -262h-96l48 182h-259z" />
    <glyph glyph-name="uni0491" unicode="&#x491;" horiz-adv-x="392" 
d="M222 313l-81 -313h-96l101 393h206l84 325h96l-104 -405h-206z" />
    <glyph glyph-name="uni0490" unicode="&#x490;" horiz-adv-x="392" 
d="M280 538l-139 -538h-96l159 618h206l52 200h96l-72 -280h-206z" />
    <glyph glyph-name="uni0137" unicode="&#x137;" horiz-adv-x="354" 
d="M99 -182l69 88h-47l25 94h107l-25 -94l-71 -88h-58zM233 356l196 362h88l-196 -358l33 -360h-96l-27 350l-90 -350h-96l185 718h96z" />
    <glyph glyph-name="Iogonek" unicode="&#x12e;" horiz-adv-x="186" 
d="M45 0l185 718h96l-185 -718q-51 -33 -72.5 -55.5t-27.5 -46.5q-9 -33 26 -33q19 0 48 15l-17 -69q-30 -13 -63 -13q-35 0 -54.5 22.5t-10.5 59.5q4 13 10 27t18.5 28.5t32 30.5t50.5 34h-36z" />
    <glyph glyph-name="Amacron" unicode="&#x100;" 
d="M268 752l19 71h240l-19 -71h-240zM336 350l62 239q10 42 -31 42h-26q-43 0 -53 -42l-62 -239h110zM136 0h-96l153 595q33 123 147 123h72q116 0 83 -123l-153 -595h-96l68 263h-110z" />
    <glyph glyph-name="Emacron" unicode="&#x112;" horiz-adv-x="287" 
d="M239 752l19 71h212l-19 -71h-212zM45 0l185 718h212l-20 -80h-116l-64 -245h116l-20 -80h-116l-61 -233h116l-20 -80h-212z" />
    <glyph glyph-name="uni0116" unicode="&#x116;" horiz-adv-x="287" 
d="M431 874l-32 -122h-102l32 122h102zM45 0l185 718h212l-20 -80h-116l-64 -245h116l-20 -80h-116l-61 -233h116l-20 -80h-212z" />
    <glyph glyph-name="uni0122" unicode="&#x122;" horiz-adv-x="390" 
d="M138 -84l22 84q-116 0 -84 122l123 474q32 122 146 122h62q116 0 84 -122l-26 -101h-96l24 94q10 42 -32 42h-19q-39 0 -49 -42l-119 -460q-11 -42 32 -42h64l48 186h-58l21 80h154l-90 -353h-78l-22 -84l-74 -98h-58l72 98h-47z" />
    <glyph glyph-name="uni0136" unicode="&#x136;" horiz-adv-x="354" 
d="M99 -182l69 88h-47l25 94h107l-25 -94l-71 -88h-58zM233 356l196 362h88l-196 -358l33 -360h-96l-27 350l-90 -350h-96l185 718h96z" />
    <glyph glyph-name="Imacron" unicode="&#x12a;" horiz-adv-x="186" 
d="M193 749l19 71h186l-19 -71h-186zM45 0l185 718h96l-185 -718h-96z" />
    <glyph glyph-name="uni013B" unicode="&#x13b;" horiz-adv-x="277" 
d="M73 -94l25 94h-53l185 718h96l-165 -638h116l-20 -80h-52l-25 -94l-71 -88h-58l69 88h-47z" />
    <glyph glyph-name="uni0145" unicode="&#x145;" horiz-adv-x="385" 
d="M141 0h103l37 143l-19 327zM92 -182l69 88h-47l25 94h-94l185 718h96l14 -347l89 347h96l-185 -718h-94l-25 -94l-71 -88h-58z" />
    <glyph glyph-name="Omacron" unicode="&#x14c;" horiz-adv-x="500" 
d="M275 752l19 71h240l-19 -71h-240zM248 80q33 0 43 37l125 484q10 37 -28 37h-45q-37 0 -47 -37l-125 -484q-10 -37 28 -37h49zM161 0q-117 0 -85 122l122 473q33 123 147 123h82q116 0 83 -123l-122 -473q-32 -122 -147 -122h-80z" />
    <glyph glyph-name="Uogonek" unicode="&#x172;" horiz-adv-x="392" 
d="M173 0q-128 5 -93 137l150 581h96l-151 -584q-13 -47 30 -47h24q43 0 56 47l151 584h96l-150 -582q-31 -121 -146 -135q-40 -27 -57.5 -47t-22.5 -42q-9 -33 25 -33q19 0 49 15l-18 -69q-29 -13 -62 -13q-36 0 -56 22.5t-10 59.5q3 12 8.5 24.5t15.5 25.5t25.5 27
t39.5 29z" />
    <glyph glyph-name="Umacron" unicode="&#x16a;" horiz-adv-x="392" 
d="M273 752l19 71h240l-19 -71h-240zM532 718l-150 -582q-36 -136 -172 -136h-29q-136 0 -101 137l150 581h96l-151 -584q-13 -47 30 -47h24q43 0 56 47l151 584h96z" />
    <glyph glyph-name="iogonek" unicode="&#x12f;" horiz-adv-x="186" 
d="M141 0q-24 -14 -41.5 -26t-28.5 -22.5t-17.5 -21t-9.5 -22.5q-9 -33 25 -33q19 0 49 15l-18 -69q-29 -13 -62 -13q-35 0 -55 22.5t-10 59.5q3 13 9 26t18 26t31.5 27t49.5 31h60zM45 0l185 718h96l-185 -718h-96z" />
    <glyph glyph-name="amacron" unicode="&#x101;" 
d="M268 752l19 71h240l-19 -71h-240zM336 350l62 239q10 42 -31 42h-26q-43 0 -53 -42l-62 -239h110zM136 0h-96l153 595q33 123 147 123h72q116 0 83 -123l-153 -595h-96l68 263h-110z" />
    <glyph glyph-name="emacron" unicode="&#x113;" horiz-adv-x="287" 
d="M239 752l19 71h212l-19 -71h-212zM45 0l185 718h212l-20 -80h-116l-64 -245h116l-20 -80h-116l-61 -233h116l-20 -80h-212z" />
    <glyph glyph-name="uni0117" unicode="&#x117;" horiz-adv-x="287" 
d="M430 874l-32 -122h-102l32 122h102zM45 0l185 718h212l-20 -80h-116l-64 -245h116l-20 -80h-116l-61 -233h116l-20 -80h-212z" />
    <glyph glyph-name="uni0123" unicode="&#x123;" horiz-adv-x="390" 
d="M492 955l-72 -99h47l-27 -104h-107l27 104l74 99h58zM435 353l-90 -353h-185q-116 0 -84 122l123 474q32 122 146 122h62q116 0 84 -122l-26 -101h-96l24 94q10 42 -32 42h-19q-39 0 -49 -42l-119 -460q-11 -42 32 -42h64l48 186h-58l21 80h154z" />
    <glyph glyph-name="imacron" unicode="&#x12b;" horiz-adv-x="186" 
d="M193 749l19 71h186l-19 -71h-186zM45 0l185 718h96l-185 -718h-96z" />
    <glyph glyph-name="uni013C" unicode="&#x13c;" horiz-adv-x="186" 
d="M-7 -182l66 78h-47l27 104h107l-27 -104l-69 -78h-57zM55 40l175 678h96l-175 -678h-96z" />
    <glyph glyph-name="uni0146" unicode="&#x146;" horiz-adv-x="385" 
d="M141 0h103l37 143l-19 327zM92 -182l69 88h-47l25 94h-94l185 718h96l14 -347l89 347h96l-185 -718h-94l-25 -94l-71 -88h-58z" />
    <glyph glyph-name="omacron" unicode="&#x14d;" horiz-adv-x="500" 
d="M275 752l19 71h240l-19 -71h-240zM248 80q33 0 43 37l125 484q10 37 -28 37h-45q-37 0 -47 -37l-125 -484q-10 -37 28 -37h49zM161 0q-117 0 -85 122l122 473q33 123 147 123h82q116 0 83 -123l-122 -473q-32 -122 -147 -122h-80z" />
    <glyph glyph-name="uogonek" unicode="&#x173;" horiz-adv-x="392" 
d="M173 0q-128 5 -93 137l150 581h96l-151 -584q-13 -47 30 -47h24q43 0 56 47l151 584h96l-150 -582q-31 -121 -146 -135q-40 -27 -57.5 -47t-22.5 -42q-9 -33 25 -33q19 0 49 15l-18 -69q-29 -13 -62 -13q-36 0 -56 22.5t-10 59.5q3 12 8.5 24.5t15.5 25.5t25.5 27
t39.5 29z" />
    <glyph glyph-name="umacron" unicode="&#x16b;" horiz-adv-x="392" 
d="M273 752l19 71h240l-19 -71h-240zM532 718l-150 -582q-36 -136 -172 -136h-29q-136 0 -101 137l150 581h96l-151 -584q-13 -47 30 -47h24q43 0 56 47l151 584h96z" />
    <glyph glyph-name="uni0157" unicode="&#x157;" horiz-adv-x="373" 
d="M91 -182l69 88h-47l25 94h107l-25 -94l-71 -88h-58zM227 372h63q43 0 56 52l40 155q13 52 -29 52h-63zM252 0l12 290h-58l-75 -290h-96l185 718h188q111 0 78 -123l-45 -177q-25 -94 -88 -119l-10 -299h-91z" />
    </font>
</defs>
</svg>
